# ZUP
v 0.08333900 -0.22006800 0.05250000
v 0.08333900 -0.21993200 0.05250000
v 0.08333900 -0.22006800 -0.05250000
v 0.08333900 -0.21993200 -0.05250000
v -0.08333900 -0.22006800 0.05250000
v -0.08333900 -0.21993200 0.05250000
v -0.08333900 -0.22006800 -0.05250000
v -0.08333900 -0.21993200 -0.05250000
v 0.02778000 -0.21993200 0.05250000
v -0.02778000 -0.21993200 0.05250000
v 0.02778000 -0.22006800 -0.05250000
v -0.02778000 -0.22006800 -0.05250000
v -0.02778000 -0.21993200 -0.05250000
v 0.02778000 -0.21993200 -0.05250000
v -0.02778000 -0.22006800 0.05250000
v 0.02778000 -0.22006800 0.05250000
v -0.08333900 -0.21993200 0.00000000
v 0.08333900 -0.22006800 0.00000000
v -0.08333900 -0.22006800 0.00000000
v 0.08333900 -0.21993200 0.00000000
v -0.02778000 -0.21993200 0.00000000
v 0.02778000 -0.21993200 0.00000000
v 0.02778000 -0.22006800 0.00000000
v -0.02778000 -0.22006800 0.00000000
v 0.05556000 -0.21993200 -0.05250000
v 0.05556000 -0.22006800 0.05250000
v 0.05556000 -0.21993200 0.05250000
v 0.05556000 -0.22006800 -0.05250000
v 0.05556000 -0.22006800 0.00000000
v 0.05556000 -0.21993200 0.00000000
v 0.00000000 -0.21993200 0.05250000
v 0.00000000 -0.22006800 -0.05250000
v 0.00000000 -0.21993200 -0.05250000
v 0.00000000 -0.22006800 0.05250000
v 0.00000000 -0.22006800 0.00000000
v 0.00000000 -0.21993200 0.00000000
v -0.05555900 -0.21993200 0.05250000
v -0.05555900 -0.22006800 -0.05250000
v -0.05555900 -0.21993200 -0.05250000
v -0.05555900 -0.22006800 0.05250000
v -0.05555900 -0.21993200 0.00000000
v -0.05555900 -0.22006800 0.00000000
v -0.08333900 -0.22006800 0.02625000
v 0.08333900 -0.21993200 0.02625000
v -0.08333900 -0.21993200 0.02625000
v 0.08333900 -0.22006800 0.02625000
v -0.02778000 -0.21993200 0.02625000
v 0.02778000 -0.21993200 0.02625000
v 0.02778000 -0.22006800 0.02625000
v -0.02778000 -0.22006800 0.02625000
v 0.05556000 -0.21993200 0.02625000
v 0.05556000 -0.22006800 0.02625000
v 0.00000000 -0.21993200 0.02625000
v 0.00000000 -0.22006800 0.02625000
v -0.05555900 -0.22006800 0.02625000
v -0.05555900 -0.21993200 0.02625000
v -0.08333900 -0.21993200 -0.02625000
v 0.08333900 -0.22006800 -0.02625000
v -0.02778000 -0.21993200 -0.02625000
v 0.02778000 -0.21993200 -0.02625000
v 0.02778000 -0.22006800 -0.02625000
v -0.02778000 -0.22006800 -0.02625000
v -0.08333900 -0.22006800 -0.02625000
v 0.08333900 -0.21993200 -0.02625000
v 0.05556000 -0.22006800 -0.02625000
v 0.05556000 -0.21993200 -0.02625000
v 0.00000000 -0.22006800 -0.02625000
v 0.00000000 -0.21993200 -0.02625000
v -0.05555900 -0.21993200 -0.02625000
v -0.05555900 -0.22006800 -0.02625000
vn 0.57735027 -0.57735027 0.57735027
vn 0.57735027 0.57735027 0.57735027
vn 0.57735027 -0.57735027 -0.57735027
vn 0.57735027 0.57735027 -0.57735027
vn -0.57735027 -0.57735027 0.57735027
vn -0.57735027 0.57735027 0.57735027
vn -0.57735027 -0.57735027 -0.57735027
vn -0.57735027 0.57735027 -0.57735027
vn 0.00000000 0.70710678 0.70710678
vn 0.00000000 0.70710678 0.70710678
vn 0.00000000 -0.70710678 -0.70710678
vn 0.00000000 -0.70710678 -0.70710678
vn 0.00000000 0.70710678 -0.70710678
vn 0.00000000 0.70710678 -0.70710678
vn 0.00000000 -0.70710678 0.70710678
vn 0.00000000 -0.70710678 0.70710678
vn -0.70710678 0.70710678 0.00000000
vn 0.70710678 -0.70710678 0.00000000
vn -0.70710678 -0.70710678 0.00000000
vn 0.70710678 0.70710678 0.00000000
vn 0.00000000 1.00000000 0.00000000
vn 0.00000000 1.00000000 0.00000000
vn 0.00000000 -1.00000000 0.00000000
vn 0.00000000 -1.00000000 0.00000000
vn 0.00000000 0.70710678 -0.70710678
vn 0.00000000 -0.70710678 0.70710678
vn 0.00000000 0.70710678 0.70710678
vn 0.00000000 -0.70710678 -0.70710678
vn 0.00000000 -1.00000000 0.00000000
vn 0.00000000 1.00000000 0.00000000
vn 0.00000000 0.70710678 0.70710678
vn 0.00000000 -0.70710678 -0.70710678
vn 0.00000000 0.70710678 -0.70710678
vn 0.00000000 -0.70710678 0.70710678
vn 0.00000000 -1.00000000 0.00000000
vn 0.00000000 1.00000000 0.00000000
vn 0.00000000 0.70710678 0.70710678
vn 0.00000000 -0.70710678 -0.70710678
vn 0.00000000 0.70710678 -0.70710678
vn 0.00000000 -0.70710678 0.70710678
vn 0.00000000 1.00000000 0.00000000
vn 0.00000000 -1.00000000 0.00000000
vn -0.70710678 -0.70710678 0.00000000
vn 0.70710678 0.70710678 0.00000000
vn -0.70710678 0.70710678 0.00000000
vn 0.70710678 -0.70710678 0.00000000
vn 0.00000000 1.00000000 0.00000000
vn 0.00000000 1.00000000 0.00000000
vn 0.00000000 -1.00000000 0.00000000
vn 0.00000000 -1.00000000 0.00000000
vn 0.00000000 1.00000000 0.00000000
vn 0.00000000 -1.00000000 0.00000000
vn 0.00000000 1.00000000 0.00000000
vn 0.00000000 -1.00000000 0.00000000
vn 0.00000000 -1.00000000 0.00000000
vn 0.00000000 1.00000000 0.00000000
vn -0.70710678 0.70710678 0.00000000
vn 0.70710678 -0.70710678 0.00000000
vn 0.00000000 1.00000000 0.00000000
vn 0.00000000 1.00000000 0.00000000
vn 0.00000000 -1.00000000 0.00000000
vn 0.00000000 -1.00000000 0.00000000
vn -0.70710678 -0.70710678 0.00000000
vn 0.70710678 0.70710678 0.00000000
vn 0.00000000 -1.00000000 0.00000000
vn 0.00000000 1.00000000 0.00000000
vn 0.00000000 -1.00000000 0.00000000
vn 0.00000000 1.00000000 0.00000000
vn 0.00000000 1.00000000 0.00000000
vn 0.00000000 -1.00000000 0.00000000
f 70//70 63//63 7//7
f 39//39 38//38 7//7
f 45//45 43//43 5//5
f 66//66 64//64 4//4
f 64//64 58//58 3//3
f 27//27 26//26 1//1
f 37//37 40//40 15//15
f 31//31 34//34 16//16
f 69//69 59//59 13//13
f 68//68 60//60 14//14
f 25//25 28//28 11//11
f 33//33 32//32 12//12
f 65//65 61//61 11//11
f 67//67 62//62 12//12
f 54//54 50//50 24//24
f 52//52 49//49 23//23
f 53//53 48//48 22//22
f 56//56 47//47 21//21
f 44//44 46//46 18//18
f 51//51 44//44 20//20
f 57//57 63//63 19//19
f 55//55 43//43 19//19
f 48//48 51//51 30//30
f 46//46 52//52 29//29
f 58//58 65//65 28//28
f 4//4 3//3 28//28
f 9//9 16//16 26//26
f 60//60 66//66 25//25
f 47//47 53//53 36//36
f 49//49 54//54 35//35
f 61//61 67//67 32//32
f 14//14 11//11 32//32
f 59//59 68//68 33//33
f 10//10 15//15 34//34
f 50//50 55//55 42//42
f 45//45 56//56 41//41
f 57//57 69//69 39//39
f 6//6 5//5 40//40
f 13//13 12//12 38//38
f 62//62 70//70 38//38
f 6//6 37//37 56//56
f 15//15 40//40 55//55
f 16//16 34//34 54//54
f 10//10 31//31 53//53
f 1//1 26//26 52//52
f 9//9 27//27 51//51
f 40//40 5//5 43//43
f 27//27 2//2 44//44
f 2//2 1//1 46//46
f 37//37 10//10 47//47
f 31//31 9//9 48//48
f 26//26 16//16 49//49
f 34//34 15//15 50//50
f 17//17 19//19 43//43
f 24//24 42//42 70//70
f 17//17 41//41 69//69
f 21//21 36//36 68//68
f 23//23 35//35 67//67
f 22//22 30//30 66//66
f 18//18 29//29 65//65
f 8//8 7//7 63//63
f 35//35 24//24 62//62
f 29//29 23//23 61//61
f 36//36 22//22 60//60
f 41//41 21//21 59//59
f 20//20 18//18 58//58
f 30//30 20//20 64//64
f 42//42 19//19 63//63
f 7//7 38//38 70//70
f 7//7 8//8 39//39
f 5//5 6//6 45//45
f 4//4 25//25 66//66
f 3//3 4//4 64//64
f 1//1 2//2 27//27
f 15//15 10//10 37//37
f 16//16 9//9 31//31
f 13//13 39//39 69//69
f 14//14 33//33 68//68
f 11//11 14//14 25//25
f 12//12 13//13 33//33
f 11//11 28//28 65//65
f 12//12 32//32 67//67
f 24//24 35//35 54//54
f 23//23 29//29 52//52
f 22//22 36//36 53//53
f 21//21 41//41 56//56
f 18//18 20//20 44//44
f 20//20 30//30 51//51
f 19//19 17//17 57//57
f 19//19 42//42 55//55
f 30//30 22//22 48//48
f 29//29 18//18 46//46
f 28//28 3//3 58//58
f 28//28 25//25 4//4
f 26//26 27//27 9//9
f 25//25 14//14 60//60
f 36//36 21//21 47//47
f 35//35 23//23 49//49
f 32//32 11//11 61//61
f 32//32 33//33 14//14
f 33//33 13//13 59//59
f 34//34 31//31 10//10
f 42//42 24//24 50//50
f 41//41 17//17 45//45
f 39//39 8//8 57//57
f 40//40 37//37 6//6
f 38//38 39//39 13//13
f 38//38 12//12 62//62
f 56//56 45//45 6//6
f 55//55 50//50 15//15
f 54//54 49//49 16//16
f 53//53 47//47 10//10
f 52//52 46//46 1//1
f 51//51 48//48 9//9
f 43//43 55//55 40//40
f 44//44 51//51 27//27
f 46//46 44//44 2//2
f 47//47 56//56 37//37
f 48//48 53//53 31//31
f 49//49 52//52 26//26
f 50//50 54//54 34//34
f 43//43 45//45 17//17
f 70//70 62//62 24//24
f 69//69 57//57 17//17
f 68//68 59//59 21//21
f 67//67 61//61 23//23
f 66//66 60//60 22//22
f 65//65 58//58 18//18
f 63//63 57//57 8//8
f 62//62 67//67 35//35
f 61//61 65//65 29//29
f 60//60 68//68 36//36
f 59//59 69//69 41//41
f 58//58 64//64 20//20
f 64//64 66//66 30//30
f 63//63 70//70 42//42