# Blender v3.5.1 OBJ File: 'postcard_set_01_4k.blend'
# www.blender.org
o postcard_15_Cube.024
v 0.423339 -0.057500 0.220068
v 0.423339 -0.057500 0.219932
v 0.423339 -0.162500 0.220068
v 0.423339 -0.162500 0.219932
v 0.256661 -0.057500 0.220068
v 0.256661 -0.057500 0.219932
v 0.256661 -0.162500 0.220068
v 0.256661 -0.162500 0.219932
v 0.367780 -0.057500 0.219932
v 0.312220 -0.057500 0.219932
v 0.367780 -0.162500 0.220068
v 0.312220 -0.162500 0.220068
v 0.312220 -0.162500 0.219932
v 0.367780 -0.162500 0.219932
v 0.312220 -0.057500 0.220068
v 0.367780 -0.057500 0.220068
v 0.256661 -0.110000 0.219932
v 0.423339 -0.110000 0.220068
v 0.256661 -0.110000 0.220068
v 0.423339 -0.110000 0.219932
v 0.312220 -0.110000 0.219932
v 0.367780 -0.110000 0.219932
v 0.367780 -0.110000 0.220068
v 0.312220 -0.110000 0.220068
v 0.395560 -0.162500 0.219932
v 0.395560 -0.057500 0.220068
v 0.395560 -0.057500 0.219932
v 0.395560 -0.162500 0.220068
v 0.395560 -0.110000 0.220068
v 0.395560 -0.110000 0.219932
v 0.340000 -0.057500 0.219932
v 0.340000 -0.162500 0.220068
v 0.340000 -0.162500 0.219932
v 0.340000 -0.057500 0.220068
v 0.340000 -0.110000 0.220068
v 0.340000 -0.110000 0.219932
v 0.284440 -0.057500 0.219932
v 0.284440 -0.162500 0.220068
v 0.284440 -0.162500 0.219932
v 0.284440 -0.057500 0.220068
v 0.284440 -0.110000 0.219932
v 0.284440 -0.110000 0.220068
v 0.256661 -0.083750 0.220068
v 0.423339 -0.083750 0.219932
v 0.256661 -0.083750 0.219932
v 0.423339 -0.083750 0.220068
v 0.312220 -0.083750 0.219932
v 0.367780 -0.083750 0.219932
v 0.367780 -0.083750 0.220068
v 0.312220 -0.083750 0.220068
v 0.395560 -0.083750 0.219932
v 0.395560 -0.083750 0.220068
v 0.340000 -0.083750 0.219932
v 0.340000 -0.083750 0.220068
v 0.284440 -0.083750 0.220068
v 0.284440 -0.083750 0.219932
v 0.256661 -0.136250 0.219932
v 0.423339 -0.136250 0.220068
v 0.312220 -0.136250 0.219932
v 0.367780 -0.136250 0.219932
v 0.367780 -0.136250 0.220068
v 0.312220 -0.136250 0.220068
v 0.256661 -0.136250 0.220068
v 0.423339 -0.136250 0.219932
v 0.395560 -0.136250 0.220068
v 0.395560 -0.136250 0.219932
v 0.340000 -0.136250 0.220068
v 0.340000 -0.136250 0.219932
v 0.284440 -0.136250 0.219932
v 0.284440 -0.136250 0.220068
vt 0.550825 0.364955
vt 0.513737 0.364955
vt 0.513737 0.329910
vt 0.550825 0.329910
vt 0.550829 0.329263
vt 0.513741 0.329264
vt 0.513126 0.435042
vt 0.513737 0.435046
vt 0.513737 0.470091
vt 0.513127 0.470087
vt 0.050825 0.041158
vt 0.013737 0.041158
vt 0.013737 0.006113
vt 0.050825 0.006113
vt 0.736874 0.364959
vt 0.736263 0.364955
vt 0.736263 0.329910
vt 0.736873 0.329913
vt 0.699171 0.470737
vt 0.699175 0.470091
vt 0.736263 0.470091
vt 0.736259 0.470737
vt 0.550821 0.470738
vt 0.550825 0.470091
vt 0.587912 0.470091
vt 0.587908 0.470737
vt 0.624996 0.470737
vt 0.625000 0.470091
vt 0.662088 0.470091
vt 0.662084 0.470737
vt 0.199175 0.041158
vt 0.162088 0.041158
vt 0.162088 0.006113
vt 0.199175 0.006113
vt 0.125000 0.041158
vt 0.087912 0.041158
vt 0.087912 0.006113
vt 0.125000 0.006113
vt 0.699179 0.329262
vt 0.699175 0.329910
vt 0.662088 0.329910
vt 0.662092 0.329263
vt 0.625004 0.329263
vt 0.625000 0.329910
vt 0.587912 0.329910
vt 0.587916 0.329263
vt 0.699175 0.364955
vt 0.662088 0.364955
vt 0.625000 0.364955
vt 0.587912 0.364955
vt 0.625000 0.435046
vt 0.587912 0.435046
vt 0.587912 0.400000
vt 0.625000 0.400000
vt 0.699175 0.435046
vt 0.662088 0.435046
vt 0.662088 0.400000
vt 0.699175 0.400000
vt 0.125000 0.111249
vt 0.087912 0.111249
vt 0.087912 0.076203
vt 0.125000 0.076203
vt 0.199175 0.111249
vt 0.162088 0.111249
vt 0.162088 0.076203
vt 0.199175 0.076203
vt 0.736875 0.435049
vt 0.736263 0.435046
vt 0.736263 0.400000
vt 0.736874 0.400004
vt 0.050825 0.111249
vt 0.013737 0.111249
vt 0.013737 0.076203
vt 0.050825 0.076203
vt 0.513125 0.364951
vt 0.513737 0.400000
vt 0.513126 0.399997
vt 0.550825 0.435046
vt 0.550825 0.400000
vt 0.736267 0.329262
vt 0.236263 0.111249
vt 0.236263 0.076203
vt 0.236263 0.041158
vt 0.236263 0.006113
vt 0.513733 0.470738
vt 0.236263 0.146294
vt 0.199175 0.146294
vt 0.162088 0.146294
vt 0.125000 0.146294
vt 0.087912 0.146294
vt 0.050825 0.146294
vt 0.013737 0.146294
vt 0.736875 0.470095
vt 0.513125 0.329906
vn 0.0000 0.0000 1.0000
vn 0.0000 -1.0000 0.0000
vn -1.0000 0.0000 0.0000
vn 0.0000 0.0000 -1.0000
vn 1.0000 0.0000 0.0000
vn 0.0000 1.0000 0.0000
s 1
f 70/1/1 63/2/1 7/3/1 38/4/1
f 39/5/2 38/4/2 7/3/2 8/6/2
f 45/7/3 43/8/3 5/9/3 6/10/3
f 66/11/4 64/12/4 4/13/4 25/14/4
f 64/15/5 58/16/5 3/17/5 4/18/5
f 27/19/6 26/20/6 1/21/6 2/22/6
f 37/23/6 40/24/6 15/25/6 10/26/6
f 31/27/6 34/28/6 16/29/6 9/30/6
f 69/31/4 59/32/4 13/33/4 39/34/4
f 68/35/4 60/36/4 14/37/4 33/38/4
f 25/39/2 28/40/2 11/41/2 14/42/2
f 33/43/2 32/44/2 12/45/2 13/46/2
f 65/47/1 61/48/1 11/41/1 28/40/1
f 67/49/1 62/50/1 12/45/1 32/44/1
f 54/51/1 50/52/1 24/53/1 35/54/1
f 52/55/1 49/56/1 23/57/1 29/58/1
f 53/59/4 48/60/4 22/61/4 36/62/4
f 56/63/4 47/64/4 21/65/4 41/66/4
f 44/67/5 46/68/5 18/69/5 20/70/5
f 51/71/4 44/72/4 20/73/4 30/74/4
f 57/75/3 63/2/3 19/76/3 17/77/3
f 55/78/1 43/8/1 19/76/1 42/79/1
f 48/60/4 51/71/4 30/74/4 22/61/4
f 46/68/1 52/55/1 29/58/1 18/69/1
f 58/16/1 65/47/1 28/40/1 3/17/1
f 4/80/2 3/17/2 28/40/2 25/39/2
f 9/30/6 16/29/6 26/20/6 27/19/6
f 60/36/4 66/11/4 25/14/4 14/37/4
f 47/64/4 53/59/4 36/62/4 21/65/4
f 49/56/1 54/51/1 35/54/1 23/57/1
f 61/48/1 67/49/1 32/44/1 11/41/1
f 14/42/2 11/41/2 32/44/2 33/43/2
f 59/32/4 68/35/4 33/38/4 13/33/4
f 10/26/6 15/25/6 34/28/6 31/27/6
f 50/52/1 55/78/1 42/79/1 24/53/1
f 45/81/4 56/63/4 41/66/4 17/82/4
f 57/83/4 69/31/4 39/34/4 8/84/4
f 6/85/6 5/9/6 40/24/6 37/23/6
f 13/46/2 12/45/2 38/4/2 39/5/2
f 62/50/1 70/1/1 38/4/1 12/45/1
f 6/86/4 37/87/4 56/63/4 45/81/4
f 15/25/1 40/24/1 55/78/1 50/52/1
f 16/29/1 34/28/1 54/51/1 49/56/1
f 10/88/4 31/89/4 53/59/4 47/64/4
f 1/21/1 26/20/1 52/55/1 46/68/1
f 9/90/4 27/91/4 51/71/4 48/60/4
f 40/24/1 5/9/1 43/8/1 55/78/1
f 27/91/4 2/92/4 44/72/4 51/71/4
f 2/93/5 1/21/5 46/68/5 44/67/5
f 37/87/4 10/88/4 47/64/4 56/63/4
f 31/89/4 9/90/4 48/60/4 53/59/4
f 26/20/1 16/29/1 49/56/1 52/55/1
f 34/28/1 15/25/1 50/52/1 54/51/1
f 17/77/3 19/76/3 43/8/3 45/7/3
f 24/53/1 42/79/1 70/1/1 62/50/1
f 17/82/4 41/66/4 69/31/4 57/83/4
f 21/65/4 36/62/4 68/35/4 59/32/4
f 23/57/1 35/54/1 67/49/1 61/48/1
f 22/61/4 30/74/4 66/11/4 60/36/4
f 18/69/1 29/58/1 65/47/1 58/16/1
f 8/94/3 7/3/3 63/2/3 57/75/3
f 35/54/1 24/53/1 62/50/1 67/49/1
f 29/58/1 23/57/1 61/48/1 65/47/1
f 36/62/4 22/61/4 60/36/4 68/35/4
f 41/66/4 21/65/4 59/32/4 69/31/4
f 20/70/5 18/69/5 58/16/5 64/15/5
f 30/74/4 20/73/4 64/12/4 66/11/4
f 42/79/1 19/76/1 63/2/1 70/1/1
