# ZUP
v 0.56720800 -0.34710600 0.73687200
v 0.56130200 -0.35301200 0.73687200
v 0.56130200 -0.35301200 0.73687200
v 0.56720800 -0.34710600 0.79351100
v 0.52972500 -0.31552900 0.79941800
v 0.52972500 -0.31552900 0.79941800
v 0.52972500 -0.31552900 0.79941800
v 0.56130200 -0.35301200 0.79351100
v 0.56130200 -0.35301200 0.79351100
v -0.56130200 -0.35301200 0.73687200
v -0.56720800 -0.34710600 0.73687200
v -0.56720800 -0.34710600 0.73687200
v -0.52972500 -0.31552900 0.79941800
v -0.52972500 -0.31552900 0.79941800
v -0.52972500 -0.31552900 0.79941800
v -0.56720800 -0.34710600 0.79351100
v -0.56720800 -0.34710600 0.79351100
v -0.56130200 -0.35301200 0.79351100
v 0.56130200 0.35301200 0.73687200
v 0.56720800 0.34710600 0.73687200
v 0.56720800 0.34710600 0.73687200
v 0.52972500 0.31552900 0.79941800
v 0.52972500 0.31552900 0.79941800
v 0.52972500 0.31552900 0.79941800
v 0.56720800 0.34710600 0.79351100
v 0.56720800 0.34710600 0.79351100
v 0.56130200 0.35301200 0.79351100
v -0.56720800 0.34710600 0.73687200
v -0.56130200 0.35301200 0.73687200
v -0.56130200 0.35301200 0.73687200
v -0.52972500 0.31552900 0.79941800
v -0.52972500 0.31552900 0.79941800
v -0.52972500 0.31552900 0.79941800
v -0.56130200 0.35301200 0.79351100
v -0.56130200 0.35301200 0.79351100
v -0.56720800 0.34710600 0.79351100
v -0.56130200 -0.34710600 0.73160100
v -0.56130200 -0.34710600 0.73160100
v 0.56130200 -0.34710600 0.73160100
v 0.56130200 -0.34710600 0.73160100
v -0.56130200 0.34710600 0.73160100
v -0.56130200 0.34710600 0.73160100
v 0.56130200 0.34710600 0.73160100
v 0.56130200 0.34710600 0.73160100
v -0.52911000 -0.31478000 0.77334700
v -0.52911000 -0.31478000 0.77334700
v -0.52911000 -0.31478000 0.77334700
v 0.52911000 -0.31478000 0.77334700
v 0.52911000 -0.31478000 0.77334700
v 0.52911000 -0.31478000 0.77334700
v -0.52911000 0.31478000 0.77334700
v -0.52911000 0.31478000 0.77334700
v -0.52911000 0.31478000 0.77334700
v 0.52911000 0.31478000 0.77334700
v 0.52911000 0.31478000 0.77334700
v 0.52911000 0.31478000 0.77334700
v 0.52911000 -0.31478000 0.73373900
v 0.52911000 -0.31478000 0.73373900
v 0.53124300 -0.31692200 0.73160100
v 0.53124300 -0.31692200 0.73160100
v -0.53124300 -0.31692200 0.73160100
v -0.53124300 -0.31692200 0.73160100
v -0.52911000 -0.31478000 0.73373900
v -0.52911000 -0.31478000 0.73373900
v 0.53124300 0.31692200 0.73160100
v 0.53124300 0.31692200 0.73160100
v 0.52911000 0.31478000 0.73373900
v 0.52911000 0.31478000 0.73373900
v -0.53124300 0.31692200 0.73160100
v -0.53124300 0.31692200 0.73160100
v -0.52911000 0.31478000 0.73373900
v -0.52911000 0.31478000 0.73373900
v 0.56130200 -0.34710600 0.79941800
v 0.56130200 -0.34710600 0.79941800
v -0.56130200 -0.34710600 0.79941800
v -0.56130200 -0.34710600 0.79941800
v -0.56130200 0.34710600 0.79941800
v -0.56130200 0.34710600 0.79941800
v 0.56130200 0.34710600 0.79941800
v 0.56130200 0.34710600 0.79941800
v -0.46309600 0.24819900 -0.00012500
v -0.45867100 0.24798600 0.00407500
v -0.45867100 0.24798600 0.00407500
v -0.45867100 0.24798600 0.00407500
v -0.46288200 0.24377500 0.00407500
v -0.46288200 0.24377500 0.00407500
v -0.42128400 0.20235600 0.77374400
v -0.41707300 0.20656800 0.77374400
v -0.41707300 0.20656800 0.77374400
v -0.50880900 0.24819100 0.00012500
v -0.50867000 0.24377500 0.00407500
v -0.50867000 0.24377500 0.00407500
v -0.51287700 0.24797300 0.00432300
v -0.51287700 0.24797300 0.00432300
v -0.48692900 0.20656800 0.77374400
v -0.48272200 0.20235600 0.77374400
v -0.46308900 0.29391200 0.00012500
v -0.46286900 0.29798100 0.00432300
v -0.46286900 0.29798100 0.00432300
v -0.45867100 0.29377400 0.00407500
v -0.45867100 0.29377400 0.00407500
v -0.41707300 0.26800500 0.77374400
v -0.42128400 0.27221300 0.77374400
v -0.50881600 0.29391900 0.00260100
v -0.51287700 0.29378100 0.00705400
v -0.51287700 0.29378100 0.00705400
v -0.50867700 0.29798000 0.00705400
v -0.50867700 0.29798000 0.00705400
v -0.48272200 0.27221300 0.77374400
v -0.48692900 0.26800500 0.77374400
v -0.46309600 -0.24819900 -0.00012500
v -0.45867100 -0.24798600 0.00407500
v -0.45867100 -0.24798600 0.00407500
v -0.45867100 -0.24798600 0.00407500
v -0.46288200 -0.24377500 0.00407500
v -0.46288200 -0.24377500 0.00407500
v -0.42128400 -0.20235700 0.77374400
v -0.41707300 -0.20656800 0.77374400
v -0.41707300 -0.20656800 0.77374400
v -0.50880900 -0.24819100 0.00012500
v -0.50867000 -0.24377500 0.00407500
v -0.50867000 -0.24377500 0.00407500
v -0.51287700 -0.24797300 0.00432300
v -0.51287700 -0.24797300 0.00432300
v -0.48692900 -0.20656800 0.77374400
v -0.48272200 -0.20235700 0.77374400
v -0.46308900 -0.29391200 0.00012500
v -0.46286900 -0.29798100 0.00432300
v -0.46286900 -0.29798100 0.00432300
v -0.45867100 -0.29377400 0.00407500
v -0.45867100 -0.29377400 0.00407500
v -0.41707300 -0.26800500 0.77374400
v -0.42128400 -0.27221300 0.77374400
v -0.50881600 -0.29391900 0.00260100
v -0.51287700 -0.29378100 0.00705400
v -0.51287700 -0.29378100 0.00705400
v -0.50867700 -0.29798100 0.00705400
v -0.50867700 -0.29798100 0.00705400
v -0.48272200 -0.27221300 0.77374400
v -0.48692900 -0.26800500 0.77374400
v 0.46309600 0.24819900 -0.00012500
v 0.45867100 0.24798600 0.00407400
v 0.45867100 0.24798600 0.00407400
v 0.45867100 0.24798600 0.00407400
v 0.46288200 0.24377500 0.00407500
v 0.46288200 0.24377500 0.00407500
v 0.42128400 0.20235700 0.77374400
v 0.41707300 0.20656800 0.77374400
v 0.41707300 0.20656800 0.77374400
v 0.50880900 0.24819100 0.00012500
v 0.50867000 0.24377500 0.00407500
v 0.50867000 0.24377500 0.00407500
v 0.51287700 0.24797300 0.00432300
v 0.51287700 0.24797300 0.00432300
v 0.48692900 0.20656800 0.77374400
v 0.48272200 0.20235700 0.77374400
v 0.46308900 0.29391200 0.00012500
v 0.46286900 0.29798100 0.00432300
v 0.46286900 0.29798100 0.00432300
v 0.45867100 0.29377400 0.00407400
v 0.45867100 0.29377400 0.00407400
v 0.41707300 0.26800500 0.77374400
v 0.42128400 0.27221300 0.77374400
v 0.50881600 0.29391900 0.00260100
v 0.51287700 0.29378100 0.00705400
v 0.51287700 0.29378100 0.00705400
v 0.50867700 0.29798100 0.00705400
v 0.50867700 0.29798100 0.00705400
v 0.48272200 0.27221300 0.77374400
v 0.48692900 0.26800500 0.77374400
v 0.46309600 -0.24819900 -0.00012500
v 0.45867100 -0.24798600 0.00407400
v 0.45867100 -0.24798600 0.00407400
v 0.45867100 -0.24798600 0.00407400
v 0.46288200 -0.24377500 0.00407500
v 0.46288200 -0.24377500 0.00407500
v 0.42128400 -0.20235600 0.77374400
v 0.41707300 -0.20656800 0.77374400
v 0.41707300 -0.20656800 0.77374400
v 0.50880900 -0.24819100 0.00012500
v 0.50867000 -0.24377500 0.00407500
v 0.50867000 -0.24377500 0.00407500
v 0.51287700 -0.24797300 0.00432300
v 0.51287700 -0.24797300 0.00432300
v 0.48692900 -0.20656800 0.77374400
v 0.48272200 -0.20235600 0.77374400
v 0.46308900 -0.29391200 0.00012500
v 0.46286900 -0.29798100 0.00432300
v 0.46286900 -0.29798100 0.00432300
v 0.45867100 -0.29377400 0.00407400
v 0.45867100 -0.29377400 0.00407400
v 0.41707300 -0.26800500 0.77374400
v 0.42128400 -0.27221300 0.77374400
v 0.50881600 -0.29391900 0.00260100
v 0.51287700 -0.29378100 0.00705400
v 0.51287700 -0.29378100 0.00705400
v 0.50867700 -0.29798000 0.00705400
v 0.50867700 -0.29798000 0.00705400
v 0.48272200 -0.27221300 0.77374400
v 0.48692900 -0.26800500 0.77374400
vn 1.00000000 0.00000000 0.00000000
vn 0.00000000 -1.00000000 0.00000000
vn 0.00000000 -1.00000000 0.00000000
vn 1.00000000 0.00000000 0.00000000
vn 0.00000000 -0.00000000 1.00000000
vn 0.00000000 -0.00000000 1.00000000
vn 0.00000000 -0.00000000 1.00000000
vn 0.00000000 -1.00000000 0.00000000
vn 0.00000000 -1.00000000 0.00000000
vn 0.00000000 -1.00000000 0.00000000
vn -1.00000000 -0.00000000 0.00000000
vn -1.00000000 -0.00000000 0.00000000
vn 0.00000000 -0.00000000 1.00000000
vn 0.00000000 -0.00000000 1.00000000
vn 0.00000000 -0.00000000 1.00000000
vn -1.00000000 -0.00000000 0.00000000
vn -1.00000000 -0.00000000 0.00000000
vn 0.00000000 -1.00000000 0.00000000
vn -0.00000000 1.00000000 0.00000000
vn 1.00000000 0.00000000 0.00000000
vn 1.00000000 0.00000000 0.00000000
vn 0.00000000 -0.00000000 1.00000000
vn 0.00000000 -0.00000000 1.00000000
vn 0.00000000 -0.00000000 1.00000000
vn 1.00000000 0.00000000 0.00000000
vn 1.00000000 0.00000000 0.00000000
vn -0.00000000 1.00000000 0.00000000
vn -1.00000000 -0.00000000 0.00000000
vn -0.00000000 1.00000000 0.00000000
vn -0.00000000 1.00000000 0.00000000
vn 0.00000000 -0.00000000 1.00000000
vn 0.00000000 -0.00000000 1.00000000
vn 0.00000000 -0.00000000 1.00000000
vn -0.00000000 1.00000000 0.00000000
vn -0.00000000 1.00000000 0.00000000
vn -1.00000000 -0.00000000 0.00000000
vn 0.00000000 -0.00000000 -1.00000000
vn 0.00000000 -0.00000000 -1.00000000
vn 0.00000000 -0.00000000 -1.00000000
vn 0.00000000 -0.00000000 -1.00000000
vn 0.00000000 -0.00000000 -1.00000000
vn 0.00000000 -0.00000000 -1.00000000
vn 0.00000000 -0.00000000 -1.00000000
vn 0.00000000 -0.00000000 -1.00000000
vn 1.00000000 0.00000000 0.00000000
vn -0.00000000 1.00000000 0.00000000
vn 0.00000000 -0.00000000 -1.00000000
vn 0.00000000 -0.00000000 -1.00000000
vn -1.00000000 -0.00000000 0.00000000
vn -0.00000000 1.00000000 0.00000000
vn 0.00000000 -0.00000000 -1.00000000
vn 0.00000000 -1.00000000 0.00000000
vn 1.00000000 0.00000000 0.00000000
vn 0.00000000 -0.00000000 -1.00000000
vn 0.00000000 -1.00000000 0.00000000
vn -1.00000000 -0.00000000 0.00000000
vn -1.00000000 -0.00000000 0.00000000
vn -0.00000000 1.00000000 0.00000000
vn 0.00000000 -0.00000000 -1.00000000
vn 0.00000000 -0.00000000 -1.00000000
vn 0.00000000 -0.00000000 -1.00000000
vn 0.00000000 -0.00000000 -1.00000000
vn 1.00000000 0.00000000 0.00000000
vn -0.00000000 1.00000000 0.00000000
vn 0.00000000 -0.00000000 -1.00000000
vn 0.00000000 -0.00000000 -1.00000000
vn 0.00000000 -1.00000000 0.00000000
vn -1.00000000 -0.00000000 0.00000000
vn 0.00000000 -0.00000000 -1.00000000
vn 0.00000000 -0.00000000 -1.00000000
vn 0.00000000 -1.00000000 0.00000000
vn 1.00000000 0.00000000 0.00000000
vn 0.00000000 -0.00000000 1.00000000
vn 0.00000000 -0.00000000 1.00000000
vn 0.00000000 -0.00000000 1.00000000
vn 0.00000000 -0.00000000 1.00000000
vn 0.00000000 -0.00000000 1.00000000
vn 0.00000000 -0.00000000 1.00000000
vn 0.00000000 -0.00000000 1.00000000
vn 0.00000000 -0.00000000 1.00000000
vn 0.05270000 -0.05270000 -0.99720000
vn 0.99850000 0.00000000 -0.05400000
vn 0.99850000 0.00000000 -0.05400000
vn 0.99850000 0.00000000 -0.05400000
vn 0.00000000 -0.99860000 -0.05370000
vn 0.00000000 -0.99860000 -0.05370000
vn 0.00000000 -0.99860000 -0.05370000
vn 0.99850000 -0.00000000 -0.05410000
vn 0.99850000 -0.00000000 -0.05410000
vn -0.10780000 -0.04870000 -0.99300000
vn 0.00000000 -0.99860000 -0.05370000
vn 0.00000000 -0.99860000 -0.05370000
vn -0.99940000 -0.00090000 0.03370000
vn -0.99940000 -0.00090000 0.03370000
vn -0.99940000 -0.00080000 0.03370000
vn 0.00000000 -0.99860000 -0.05370000
vn 0.04860000 0.10780000 -0.99300000
vn 0.00080000 0.99940000 0.03350000
vn 0.00080000 0.99940000 0.03350000
vn 0.99850000 0.00000000 -0.05400000
vn 0.99850000 0.00000000 -0.05400000
vn 0.99850000 0.00000000 -0.05400000
vn 0.00080000 0.99940000 0.03350000
vn -0.11210000 0.11220000 -0.98730000
vn -0.99940000 -0.00090000 0.03370000
vn -0.99940000 -0.00090000 0.03370000
vn 0.00090000 0.99940000 0.03350000
vn 0.00090000 0.99940000 0.03350000
vn 0.00090000 0.99940000 0.03350000
vn -0.99940000 -0.00090000 0.03390000
vn 0.05270000 0.05270000 -0.99720000
vn 0.99850000 0.00000000 -0.05400000
vn 0.99850000 0.00000000 -0.05400000
vn 0.99850000 0.00000000 -0.05400000
vn -0.00000000 0.99860000 -0.05370000
vn -0.00000000 0.99860000 -0.05370000
vn -0.00000000 0.99860000 -0.05380000
vn 0.99850000 0.00000000 -0.05400000
vn 0.99850000 0.00000000 -0.05400000
vn -0.10780000 0.04860000 -0.99300000
vn -0.00000000 0.99860000 -0.05370000
vn -0.00000000 0.99860000 -0.05370000
vn -0.99940000 0.00090000 0.03370000
vn -0.99940000 0.00090000 0.03370000
vn -0.99940000 0.00080000 0.03370000
vn -0.00000000 0.99860000 -0.05370000
vn 0.04860000 -0.10780000 -0.99300000
vn 0.00080000 -0.99940000 0.03350000
vn 0.00080000 -0.99940000 0.03350000
vn 0.99850000 0.00000000 -0.05400000
vn 0.99850000 0.00000000 -0.05400000
vn 0.99850000 0.00000000 -0.05400000
vn 0.00080000 -0.99940000 0.03350000
vn -0.11220000 -0.11220000 -0.98730000
vn -0.99940000 0.00080000 0.03370000
vn -0.99940000 0.00080000 0.03370000
vn 0.00080000 -0.99940000 0.03350000
vn 0.00080000 -0.99940000 0.03350000
vn 0.00090000 -0.99940000 0.03360000
vn -0.99940000 0.00080000 0.03370000
vn -0.05270000 -0.05270000 -0.99720000
vn -0.99850000 0.00000000 -0.05400000
vn -0.99850000 0.00000000 -0.05400000
vn -0.99850000 0.00000000 -0.05400000
vn 0.00000000 -0.99860000 -0.05370000
vn 0.00000000 -0.99860000 -0.05370000
vn 0.00000000 -0.99850000 -0.05390000
vn -0.99850000 0.00000000 -0.05400000
vn -0.99850000 0.00000000 -0.05400000
vn 0.10780000 -0.04860000 -0.99300000
vn 0.00000000 -0.99860000 -0.05370000
vn 0.00000000 -0.99860000 -0.05370000
vn 0.99940000 -0.00090000 0.03370000
vn 0.99940000 -0.00090000 0.03370000
vn 0.99940000 -0.00080000 0.03370000
vn 0.00000000 -0.99860000 -0.05370000
vn -0.04860000 0.10780000 -0.99300000
vn -0.00080000 0.99940000 0.03350000
vn -0.00080000 0.99940000 0.03350000
vn -0.99850000 0.00000000 -0.05400000
vn -0.99850000 0.00000000 -0.05400000
vn -0.99850000 0.00000000 -0.05400000
vn -0.00080000 0.99940000 0.03350000
vn 0.11220000 0.11220000 -0.98730000
vn 0.99940000 -0.00080000 0.03370000
vn 0.99940000 -0.00080000 0.03370000
vn -0.00080000 0.99940000 0.03350000
vn -0.00080000 0.99940000 0.03350000
vn -0.00090000 0.99940000 0.03340000
vn 0.99940000 -0.00080000 0.03370000
vn -0.05270000 0.05270000 -0.99720000
vn -0.99850000 0.00000000 -0.05400000
vn -0.99850000 0.00000000 -0.05400000
vn -0.99850000 0.00000000 -0.05400000
vn -0.00000000 0.99860000 -0.05370000
vn -0.00000000 0.99860000 -0.05370000
vn -0.00000000 0.99860000 -0.05370000
vn -0.99850000 0.00000000 -0.05410000
vn -0.99850000 0.00000000 -0.05410000
vn 0.10780000 0.04870000 -0.99300000
vn -0.00000000 0.99860000 -0.05370000
vn -0.00000000 0.99860000 -0.05370000
vn 0.99940000 0.00090000 0.03370000
vn 0.99940000 0.00090000 0.03370000
vn 0.99940000 0.00080000 0.03370000
vn -0.00000000 0.99860000 -0.05370000
vn -0.04860000 -0.10780000 -0.99300000
vn -0.00080000 -0.99940000 0.03350000
vn -0.00080000 -0.99940000 0.03350000
vn -0.99850000 0.00000000 -0.05400000
vn -0.99850000 0.00000000 -0.05400000
vn -0.99850000 0.00000000 -0.05400000
vn -0.00080000 -0.99940000 0.03350000
vn 0.11210000 -0.11220000 -0.98730000
vn 0.99940000 0.00090000 0.03370000
vn 0.99940000 0.00090000 0.03370000
vn -0.00090000 -0.99940000 0.03350000
vn -0.00090000 -0.99940000 0.03350000
vn -0.00090000 -0.99940000 0.03350000
vn 0.99940000 0.00080000 0.03370000
f 20//20 25//25 4//4
f 4//4 1//1 20//20
f 29//29 34//34 27//27
f 27//27 19//19 29//29
f 32//32 15//15 7//7
f 7//7 22//22 32//32
f 2//2 8//8 18//18
f 18//18 10//10 2//2
f 12//12 17//17 36//36
f 36//36 28//28 12//12
f 39//39 1//1 3//3
f 4//4 74//74 9//9
f 38//38 10//10 11//11
f 75//75 16//16 18//18
f 44//44 19//19 21//21
f 79//79 26//26 27//27
f 41//41 28//28 30//30
f 78//78 35//35 36//36
f 38//38 40//40 2//2
f 2//2 10//10 38//38
f 1//1 4//4 9//9
f 9//9 3//3 1//1
f 73//73 75//75 18//18
f 18//18 8//8 73//73
f 16//16 11//11 10//10
f 10//10 18//18 16//16
f 41//41 37//37 12//12
f 12//12 28//28 41//41
f 76//76 78//78 36//36
f 36//36 17//17 76//76
f 35//35 30//30 28//28
f 28//28 36//36 35//35
f 44//44 42//42 29//29
f 29//29 19//19 44//44
f 77//77 79//79 27//27
f 27//27 34//34 77//77
f 26//26 21//21 19//19
f 19//19 27//27 26//26
f 39//39 43//43 20//20
f 20//20 1//1 39//39
f 80//80 74//74 4//4
f 4//4 25//25 80//80
f 68//68 57//57 49//49
f 49//49 56//56 68//68
f 65//65 70//70 42//42
f 42//42 44//44 65//65
f 71//71 67//67 55//55
f 55//55 52//52 71//71
f 61//61 60//60 40//40
f 40//40 38//38 61//61
f 47//47 51//51 54//54
f 54//54 48//48 47//47
f 59//59 66//66 43//43
f 43//43 39//39 59//59
f 63//63 72//72 53//53
f 53//53 45//45 63//63
f 69//69 62//62 37//37
f 37//37 41//41 69//69
f 64//64 58//58 60//60
f 60//60 61//61 64//64
f 72//72 63//63 62//62
f 62//62 69//69 72//72
f 67//67 71//71 70//70
f 70//70 65//65 67//67
f 57//57 68//68 66//66
f 66//66 59//59 57//57
f 58//58 64//64 46//46
f 46//46 50//50 58//58
f 6//6 13//13 75//75
f 75//75 73//73 6//6
f 14//14 31//31 78//78
f 78//78 76//76 14//14
f 33//33 24//24 79//79
f 79//79 77//77 33//33
f 23//23 5//5 74//74
f 74//74 80//80 23//23
f 100//100 102//102 89//89
f 89//89 84//84 100//100
f 108//108 109//109 103//103
f 103//103 98//98 108//108
f 93//93 95//95 110//110
f 110//110 106//106 93//93
f 86//86 87//87 96//96
f 96//96 92//92 86//86
f 81//81 82//82 85//85
f 90//90 91//91 94//94
f 97//97 99//99 101//101
f 104//104 105//105 107//107
f 90//90 81//81 85//85
f 85//85 91//91 90//90
f 83//83 88//88 87//87
f 87//87 86//86 83//83
f 95//95 93//93 92//92
f 92//92 96//96 95//95
f 104//104 90//90 94//94
f 94//94 105//105 104//104
f 109//109 108//108 106//106
f 106//106 110//110 109//109
f 97//97 104//104 107//107
f 107//107 99//99 97//97
f 102//102 100//100 98//98
f 98//98 103//103 102//102
f 81//81 97//97 101//101
f 101//101 82//82 81//81
f 90//90 104//104 97//97
f 97//97 81//81 90//90
f 130//130 113//113 119//119
f 119//119 132//132 130//130
f 137//137 129//129 133//133
f 133//133 139//139 137//137
f 124//124 136//136 140//140
f 140//140 125//125 124//124
f 116//116 121//121 126//126
f 126//126 117//117 116//116
f 111//111 115//115 112//112
f 120//120 123//123 122//122
f 127//127 131//131 128//128
f 134//134 138//138 135//135
f 120//120 122//122 115//115
f 115//115 111//111 120//120
f 114//114 116//116 117//117
f 117//117 118//118 114//114
f 125//125 126//126 121//121
f 121//121 124//124 125//125
f 134//134 135//135 123//123
f 123//123 120//120 134//134
f 139//139 140//140 136//136
f 136//136 137//137 139//139
f 127//127 128//128 138//138
f 138//138 134//134 127//127
f 132//132 133//133 129//129
f 129//129 130//130 132//132
f 111//111 112//112 131//131
f 131//131 127//127 111//111
f 120//120 111//111 127//127
f 127//127 134//134 120//120
f 160//160 143//143 149//149
f 149//149 162//162 160//160
f 168//168 158//158 163//163
f 163//163 169//169 168//168
f 154//154 165//165 170//170
f 170//170 155//155 154//154
f 145//145 152//152 156//156
f 156//156 147//147 145//145
f 141//141 146//146 144//144
f 150//150 153//153 151//151
f 157//157 161//161 159//159
f 164//164 167//167 166//166
f 150//150 151//151 146//146
f 146//146 141//141 150//150
f 142//142 145//145 147//147
f 147//147 148//148 142//142
f 155//155 156//156 152//152
f 152//152 154//154 155//155
f 164//164 166//166 153//153
f 153//153 150//150 164//164
f 169//169 170//170 165//165
f 165//165 168//168 169//169
f 157//157 159//159 167//167
f 167//167 164//164 157//157
f 162//162 163//163 158//158
f 158//158 160//160 162//162
f 141//141 144//144 161//161
f 161//161 157//157 141//141
f 150//150 141//141 157//157
f 157//157 164//164 150//150
f 190//190 192//192 178//178
f 178//178 174//174 190//190
f 197//197 199//199 193//193
f 193//193 189//189 197//197
f 184//184 185//185 200//200
f 200//200 195//195 184//184
f 175//175 177//177 186//186
f 186//186 181//181 175//175
f 171//171 173//173 176//176
f 180//180 182//182 183//183
f 187//187 188//188 191//191
f 194//194 196//196 198//198
f 180//180 171//171 176//176
f 176//176 182//182 180//180
f 172//172 179//179 177//177
f 177//177 175//175 172//172
f 185//185 184//184 181//181
f 181//181 186//186 185//185
f 194//194 180//180 183//183
f 183//183 196//196 194//194
f 199//199 197//197 195//195
f 195//195 200//200 199//199
f 187//187 194//194 198//198
f 198//198 188//188 187//187
f 192//192 190//190 189//189
f 189//189 193//193 192//192
f 171//171 187//187 191//191
f 191//191 173//173 171//171
f 180//180 194//194 187//187
f 187//187 171//171 180//180