v 0.79763089 -96.00994481 16.26693123
v 0.79753147 -96.01093742 16.26661069
v 0.79863641 -96.01001656 16.26625914
v 0.88607793 -96.01869033 16.26625314
v 0.88507269 -96.01860081 16.26649789
v 0.88497327 -96.01959309 16.26616949
v 0.91773496 -96.01665949 16.26404403
v 0.91663035 -96.01755987 16.26390300
v 0.91763552 -96.01765332 16.26375279
v 0.91964533 -96.01787359 16.26425459
v 0.91854047 -96.01878886 16.26447168
v 0.91954576 -96.01887501 16.26414583
v 0.92055093 -96.01896933 16.26401623
v 0.92045095 -96.01999568 16.26450715
v 0.91944544 -96.01992281 16.26515238
v 0.91934577 -96.02093015 16.26518579
v 0.91834091 -96.02081735 16.26487069
v 0.91934577 -96.02093015 16.26518579
v 0.91944544 -96.01992281 16.26515238
v 0.92557490 -96.01955346 16.26607556
v 0.92547571 -96.02053180 16.26541170
v 0.92658053 -96.01961940 16.26526355
v 0.92547571 -96.02053180 16.26541170
v 0.92648081 -96.02062973 16.26536923
v 0.92658053 -96.01961940 16.26526355
vn 0.00300865 -0.00181761 0.00469532
vn -0.00048835 -0.00265887 0.00520515
vn 0.00361363 0.00111067 0.00448439
vn 0.00106796 0.00124553 0.00563114
vn -0.00024212 -0.00227389 0.00540115
vn 0.00115061 -0.00191060 0.00542470
vn 0.00067463 -0.00170057 0.00557267
vn 0.00077408 0.00174206 0.00554686
vn -0.00055645 -0.00204083 0.00547056
vn 0.00122316 -0.00073944 0.00568848
vn 0.00173248 -0.00077501 0.00554973
vn 0.00120682 -0.00073821 0.00569213
vn 0.00041083 0.00160234 0.00562720
vn 0.00315897 -0.00014869 0.00493968
vn 0.00315897 -0.00014869 0.00493968
vn 0.00315897 -0.00014869 0.00493968
vn -0.00171538 0.00035541 0.00559757
vn -0.00171538 0.00035541 0.00559757
vn -0.00171538 0.00035541 0.00559757
vn 0.00303529 -0.00302515 0.00400464
vn 0.00303529 -0.00302515 0.00400464
vn 0.00303529 -0.00302515 0.00400464
vn 0.00030281 0.00057979 0.00582871
vn 0.00001643 -0.00089251 0.00579697
vn 0.00030281 0.00057979 0.00582871
vt 0.37669501 0.79889600
vt 0.37573901 0.79889600
vt 0.37669501 0.79794000
vt 0.37669501 0.71475899
vt 0.37669501 0.71571499
vt 0.37573901 0.71571499
vt 0.38147500 0.68511900
vt 0.38051900 0.68607500
vt 0.38051900 0.68511900
vt 0.38051900 0.68320701
vt 0.37956300 0.68416300
vt 0.37956300 0.68320701
vt 0.37956300 0.68225101
vt 0.37860700 0.68225101
vt 0.37860700 0.68320701
vt 0.37765101 0.68320701
vt 0.37765101 0.68416300
vt 0.37765101 0.68320701
vt 0.37860700 0.68320701
vt 0.37956300 0.67747000
vt 0.37860700 0.67747000
vt 0.37956300 0.67651400
vt 0.37860700 0.67747000
vt 0.37860700 0.67651400
vt 0.37956300 0.67651400
f 1/1/1 2/2/2 3/3/3
f 4/4/4 5/5/5 6/6/6
f 7/7/7 8/8/8 9/9/9
f 10/10/10 11/11/11 12/12/12
f 10/10/10 12/12/12 13/13/13
f 14/14/14 15/15/15 16/16/16
f 17/17/17 18/18/18 19/19/19
f 20/20/20 21/21/21 22/22/22
f 23/23/23 24/24/24 25/25/25