# ZUP
v 0.79763089 -16.26693123 -96.00994481
v 0.79753147 -16.26661069 -96.01093742
v 0.79863641 -16.26625914 -96.01001656
v 0.88607793 -16.26625314 -96.01869033
v 0.88507269 -16.26649789 -96.01860081
v 0.88497327 -16.26616949 -96.01959309
v 0.91773496 -16.26404403 -96.01665949
v 0.91663035 -16.26390300 -96.01755987
v 0.91763552 -16.26375279 -96.01765332
v 0.91964533 -16.26425459 -96.01787359
v 0.91854047 -16.26447168 -96.01878886
v 0.91954576 -16.26414583 -96.01887501
v 0.92055093 -16.26401623 -96.01896933
v 0.92045095 -16.26450715 -96.01999568
v 0.91944544 -16.26515238 -96.01992281
v 0.91934577 -16.26518579 -96.02093015
v 0.91834091 -16.26487069 -96.02081735
v 0.91934577 -16.26518579 -96.02093015
v 0.91944544 -16.26515238 -96.01992281
v 0.92557490 -16.26607556 -96.01955346
v 0.92547571 -16.26541170 -96.02053180
v 0.92658053 -16.26526355 -96.01961940
v 0.92547571 -16.26541170 -96.02053180
v 0.92648081 -16.26536923 -96.02062973
v 0.92658053 -16.26526355 -96.01961940
vn 0.00300865 -0.00469532 -0.00181761
vn 0.00300865 -0.00469532 -0.00181761
vn 0.00300865 -0.00469532 -0.00181761
vn 0.00300865 -0.00469532 -0.00181761
vn 0.00300865 -0.00469532 -0.00181761
vn 0.00300865 -0.00469532 -0.00181761
vn 0.00300865 -0.00469532 -0.00181761
vn 0.00300865 -0.00469532 -0.00181761
vn 0.00300865 -0.00469532 -0.00181761
vn 0.00300865 -0.00469532 -0.00181761
vn 0.00300865 -0.00469532 -0.00181761
vn 0.00120682 -0.00569213 -0.00073821
vn 0.00300865 -0.00469532 -0.00181761
vn 0.00300865 -0.00469532 -0.00181761
vn 0.00300865 -0.00469532 -0.00181761
vn 0.00300865 -0.00469532 -0.00181761
vn 0.00300865 -0.00469532 -0.00181761
vn 0.00300865 -0.00469532 -0.00181761
vn 0.00300865 -0.00469532 -0.00181761
vn 0.00300865 -0.00469532 -0.00181761
vn 0.00300865 -0.00469532 -0.00181761
vn 0.00300865 -0.00469532 -0.00181761
vn 0.00300865 -0.00469532 -0.00181761
vn 0.00300865 -0.00469532 -0.00181761
vn 0.00300865 -0.00469532 -0.00181761
vt 0.37669501 0.79889600
vt 0.37669501 0.79889600
vt 0.37669501 0.79889600
vt 0.37669501 0.79889600
vt 0.37669501 0.79889600
vt 0.37669501 0.79889600
vt 0.37669501 0.79889600
vt 0.37669501 0.79889600
vt 0.37669501 0.79889600
vt 0.37669501 0.79889600
vt 0.37669501 0.79889600
vt 0.37956300 0.68320701
vt 0.37669501 0.79889600
vt 0.37669501 0.79889600
vt 0.37669501 0.79889600
vt 0.37669501 0.79889600
vt 0.37669501 0.79889600
vt 0.37669501 0.79889600
vt 0.37669501 0.79889600
vt 0.37669501 0.79889600
vt 0.37669501 0.79889600
vt 0.37669501 0.79889600
vt 0.37669501 0.79889600
vt 0.37669501 0.79889600
vt 0.37669501 0.79889600
f 1/1/1 2/2/2 3/3/3
f 4/4/4 5/5/5 6/6/6
f 7/7/7 8/8/8 9/9/9
f 10/10/10 11/11/11 12/12/12
f 10/10/10 12/12/12 13/13/13
f 14/14/14 15/15/15 16/16/16
f 17/17/17 18/18/18 19/19/19
f 20/20/20 21/21/21 22/22/22
f 23/23/23 24/24/24 25/25/25