v -0.31249999 -0.00750000 1.02499998
v 0.31249999 -0.00750000 1.02499998
v 0.31249999 0.00750000 1.02499998
v -0.31249999 0.00750000 1.02499998
v 0.31249999 -0.00750000 1.02499998
v 0.31249999 -0.00750000 -1.02499998
v 0.31249999 0.00750000 -1.02499998
v 0.31249999 0.00750000 1.02499998
v 0.31249999 -0.00750000 -1.02499998
v -0.31249999 -0.00750000 -1.02499998
v -0.31249999 0.00750000 -1.02499998
v 0.31249999 0.00750000 -1.02499998
v -0.31249999 -0.00750000 -1.02499998
v -0.31249999 -0.00750000 1.02499998
v -0.31249999 0.00750000 1.02499998
v -0.31249999 0.00750000 -1.02499998
v -0.28687240 0.00750000 0.99746336
v -0.28544330 0.00750000 0.99841825
v -0.00311484 0.00750000 0.99841825
v -0.00168574 0.00750000 0.99746336
v 0.00168574 0.00750000 0.99746336
v 0.00311484 0.00750000 0.99841825
v 0.28544330 0.00750000 0.99841825
v 0.28687240 0.00750000 0.99746336
v -0.28687240 0.00750000 -1.00560285
v -0.28544330 0.00750000 -1.00464796
v -0.00311484 0.00750000 -1.00464796
v -0.00168574 0.00750000 -1.00560285
v 0.00000000 0.00750000 0.99712804
v 0.28855813 0.00750000 0.99712804
v -0.28687240 0.00750000 -0.00406973
v -0.00168574 0.00750000 -0.00406973
v 0.00000000 0.00750000 -0.00440504
v -0.28855813 0.00750000 -0.00440504
v 0.00168574 0.00750000 -0.00406973
v 0.28687240 0.00750000 -0.00406973
v 0.28855813 0.00750000 -0.00440504
v -0.28855813 0.00750000 0.99712804
v 0.00168574 0.00750000 -1.00560285
v 0.00311484 0.00750000 -1.00464796
v 0.28544330 0.00750000 -1.00464796
v 0.28687240 0.00750000 -1.00560285
v -0.28544330 0.00750000 -0.00311484
v -0.00311484 0.00750000 -0.00311484
v 0.00311484 0.00750000 -0.00311484
v 0.28544330 0.00750000 -0.00311484
v 0.00406973 0.00750000 0.99984739
v 0.28448842 0.00750000 0.99984739
v 0.28448842 0.00750000 1.00321890
v 0.28415309 0.00750000 1.00153310
v 0.00440504 0.00750000 1.00153310
v 0.00406973 0.00750000 1.00321890
v -0.28448842 0.00750000 0.99984739
v -0.00406973 0.00750000 0.99984739
v -0.00311484 0.00750000 0.00311484
v -0.00406973 0.00750000 0.00168574
v -0.28448842 0.00750000 0.00168574
v -0.28544330 0.00750000 0.00311484
v 0.28448842 0.00750000 0.00168574
v 0.28415309 0.00750000 0.00000000
v 0.00440504 0.00750000 0.00000000
v 0.00406973 0.00750000 0.00168574
v -0.28448842 0.00750000 -0.00168574
v -0.28415309 0.00750000 0.00000000
v -0.00440504 0.00750000 0.00000000
v -0.00406973 0.00750000 -0.00168574
v -0.28415309 0.00750000 1.00153310
v -0.00440504 0.00750000 1.00153310
v 0.28544330 0.00750000 1.00464796
v 0.00311484 0.00750000 1.00464796
v -0.00311484 0.00750000 -0.99841825
v -0.00406973 0.00750000 -0.99984739
v -0.28448842 0.00750000 -0.99984739
v -0.28544330 0.00750000 -0.99841825
v 0.00406973 0.00750000 -1.00321890
v 0.00440504 0.00750000 -1.00153310
v 0.28415309 0.00750000 -1.00153310
v 0.28448842 0.00750000 -1.00321890
v -0.00440504 0.00750000 -1.00153310
v -0.28415309 0.00750000 -1.00153310
v 0.28544330 0.00750000 0.00311484
v 0.00311484 0.00750000 0.00311484
v -0.28855813 0.00750000 0.00440504
v -0.29024389 0.00750000 0.00406973
v -0.29024389 0.00750000 0.99746336
v 0.28544330 0.00750000 -0.99841825
v 0.28448842 0.00750000 -0.99984739
v 0.00406973 0.00750000 -0.99984739
v 0.00311484 0.00750000 -0.99841825
v 0.00406973 0.00750000 -0.00168574
v 0.28448842 0.00750000 -0.00168574
v -0.00311484 0.00750000 1.00464796
v -0.00406973 0.00750000 1.00321890
v -0.28448842 0.00750000 1.00321890
v -0.28544330 0.00750000 1.00464796
v -0.28855813 0.00750000 -0.99712804
v -0.29024389 0.00750000 -0.99746336
v -0.29024389 0.00750000 -0.00406973
v -0.29167299 0.00750000 0.99841825
v -0.29167299 0.00750000 0.00311484
v 0.29024389 0.00750000 -0.00406973
v 0.29024389 0.00750000 -0.99746336
v 0.28855813 0.00750000 -0.99712804
v -0.00000000 0.00750000 0.00440504
v 0.28855813 0.00750000 0.00440504
v -0.00000000 0.00750000 -0.99712804
v 0.29024389 0.00750000 0.99746336
v 0.29024389 0.00750000 0.00406973
v -0.28448842 0.00750000 -1.00321890
v -0.00406973 0.00750000 -1.00321890
v -0.00168574 0.00750000 0.00406973
v -0.28687240 0.00750000 0.00406973
v -0.00168574 0.00750000 1.00560285
v -0.28687240 0.00750000 1.00560285
v -0.00168574 0.00750000 -0.99746336
v -0.28687240 0.00750000 -0.99746336
v 0.28687240 0.00750000 -0.99746336
v 0.00168574 0.00750000 -0.99746336
v 0.28687240 0.00750000 0.00406973
v 0.00168574 0.00750000 0.00406973
v -0.31249999 0.00750000 1.02499998
v -0.29262786 0.00750000 0.00168574
v 0.31249999 0.00750000 1.02499998
v 0.29167299 0.00750000 0.00311484
v 0.29167299 0.00750000 0.99841825
v -0.00000000 0.00750000 1.00593816
v 0.31249999 0.00750000 -1.02499998
v 0.00000000 0.00750000 -1.00593816
v -0.31249999 0.00750000 -1.02499998
v 0.28687240 0.00750000 1.00560285
v 0.00168574 0.00750000 1.00560285
v -0.29167299 0.00750000 -0.99841825
v -0.29296317 0.00750000 0.00000000
v 0.29167299 0.00750000 -0.99841825
v 0.29296317 0.00750000 0.00000000
v 0.29296317 0.00750000 1.00153310
v 0.29262786 0.00750000 1.00321890
v 0.29167299 0.00750000 1.00464796
v 0.29262786 0.00750000 -1.00321890
v 0.29296317 0.00750000 -1.00153310
v 0.29167299 0.00750000 -1.00464796
v 0.29024389 0.00750000 1.00560285
v 0.29024389 0.00750000 -1.00560285
v 0.28855813 0.00750000 1.00593816
v 0.28855813 0.00750000 -1.00593816
v 0.29262786 0.00750000 0.99984739
v 0.29262786 0.00750000 -0.99984739
v -0.28855813 0.00750000 -1.00593816
v -0.29024389 0.00750000 -1.00560285
v -0.29167299 0.00750000 -1.00464796
v -0.29262786 0.00750000 -1.00321890
v -0.29296317 0.00750000 -1.00153310
v -0.29262786 0.00750000 -0.99984739
v -0.28855813 0.00750000 1.00593816
v -0.29024389 0.00750000 1.00560285
v -0.29167299 0.00750000 1.00464796
v -0.29262786 0.00750000 1.00321890
v -0.29296317 0.00750000 1.00153310
v -0.29262786 0.00750000 0.99984739
v 0.29262786 0.00750000 0.00168574
v 0.29262786 0.00750000 -0.00168574
v 0.29167299 0.00750000 -0.00311484
v -0.29167299 0.00750000 -0.00311484
v -0.29262786 0.00750000 -0.00168574
v -0.31249999 -0.00750000 -1.02499998
v 0.31249999 -0.00750000 -1.02499998
v 0.31249999 -0.00750000 1.02499998
v -0.31249999 -0.00750000 1.02499998
vn 0.00000000 -0.00000000 0.01000000
vn 0.00000000 -0.00000000 0.01000000
vn 0.00000000 -0.00000000 0.01000000
vn 0.00000000 -0.00000000 0.01000000
vn 0.01000000 0.00000000 0.00000000
vn 0.01000000 0.00000000 0.00000000
vn 0.01000000 0.00000000 0.00000000
vn 0.01000000 0.00000000 0.00000000
vn 0.00000000 0.00000000 -0.01000000
vn 0.00000000 0.00000000 -0.01000000
vn 0.00000000 0.00000000 -0.01000000
vn 0.00000000 0.00000000 -0.01000000
vn -0.01000000 0.00000000 0.00000000
vn -0.01000000 0.00000000 0.00000000
vn -0.01000000 0.00000000 0.00000000
vn -0.01000000 0.00000000 0.00000000
vn 0.00000000 0.01000000 0.00000000
vn 0.00000000 0.01000000 0.00000000
vn 0.00000000 0.01000000 0.00000000
vn 0.00000000 0.01000000 0.00000000
vn 0.00000000 0.01000000 0.00000000
vn 0.00000000 0.01000000 0.00000000
vn 0.00000000 0.01000000 0.00000000
vn 0.00000000 0.01000000 0.00000000
vn 0.00000000 0.01000000 0.00000000
vn 0.00000000 0.01000000 0.00000000
vn 0.00000000 0.01000000 0.00000000
vn 0.00000000 0.01000000 0.00000000
vn 0.00000000 0.01000000 0.00000000
vn 0.00000000 0.01000000 0.00000000
vn 0.00000000 0.01000000 0.00000000
vn 0.00000000 0.01000000 0.00000000
vn 0.00000000 0.01000000 0.00000000
vn 0.00000000 0.01000000 0.00000000
vn 0.00000000 0.01000000 0.00000000
vn 0.00000000 0.01000000 0.00000000
vn 0.00000000 0.01000000 0.00000000
vn 0.00000000 0.01000000 0.00000000
vn 0.00000000 0.01000000 0.00000000
vn 0.00000000 0.01000000 0.00000000
vn 0.00000000 0.01000000 0.00000000
vn 0.00000000 0.01000000 0.00000000
vn 0.00000000 0.01000000 0.00000000
vn 0.00000000 0.01000000 0.00000000
vn 0.00000000 0.01000000 0.00000000
vn 0.00000000 0.01000000 0.00000000
vn 0.00000000 0.01000000 0.00000000
vn 0.00000000 0.01000000 0.00000000
vn 0.00000000 0.01000000 0.00000000
vn 0.00000000 0.01000000 0.00000000
vn 0.00000000 0.01000000 0.00000000
vn 0.00000000 0.01000000 0.00000000
vn 0.00000000 0.01000000 0.00000000
vn 0.00000000 0.01000000 0.00000000
vn 0.00000000 0.01000000 0.00000000
vn 0.00000000 0.01000000 0.00000000
vn 0.00000000 0.01000000 0.00000000
vn 0.00000000 0.01000000 0.00000000
vn 0.00000000 0.01000000 0.00000000
vn 0.00000000 0.01000000 0.00000000
vn 0.00000000 0.01000000 0.00000000
vn 0.00000000 0.01000000 0.00000000
vn 0.00000000 0.01000000 0.00000000
vn 0.00000000 0.01000000 0.00000000
vn 0.00000000 0.01000000 0.00000000
vn 0.00000000 0.01000000 0.00000000
vn 0.00000000 0.01000000 0.00000000
vn 0.00000000 0.01000000 0.00000000
vn 0.00000000 0.01000000 0.00000000
vn 0.00000000 0.01000000 0.00000000
vn 0.00000000 0.01000000 0.00000000
vn 0.00000000 0.01000000 0.00000000
vn 0.00000000 0.01000000 0.00000000
vn 0.00000000 0.01000000 0.00000000
vn 0.00000000 0.01000000 0.00000000
vn 0.00000000 0.01000000 0.00000000
vn 0.00000000 0.01000000 0.00000000
vn 0.00000000 0.01000000 0.00000000
vn 0.00000000 0.01000000 0.00000000
vn 0.00000000 0.01000000 0.00000000
vn 0.00000000 0.01000000 0.00000000
vn 0.00000000 0.01000000 0.00000000
vn 0.00000000 0.01000000 0.00000000
vn 0.00000000 0.01000000 0.00000000
vn 0.00000000 0.01000000 0.00000000
vn 0.00000000 0.01000000 0.00000000
vn 0.00000000 0.01000000 0.00000000
vn 0.00000000 0.01000000 0.00000000
vn 0.00000000 0.01000000 0.00000000
vn 0.00000000 0.01000000 0.00000000
vn 0.00000000 0.01000000 0.00000000
vn 0.00000000 0.01000000 0.00000000
vn 0.00000000 0.01000000 0.00000000
vn 0.00000000 0.01000000 0.00000000
vn 0.00000000 0.01000000 0.00000000
vn 0.00000000 0.01000000 0.00000000
vn 0.00000000 0.01000000 0.00000000
vn 0.00000000 0.01000000 0.00000000
vn 0.00000000 0.01000000 0.00000000
vn 0.00000000 0.01000000 0.00000000
vn 0.00000000 0.01000000 0.00000000
vn 0.00000000 0.01000000 0.00000000
vn 0.00000000 0.01000000 0.00000000
vn 0.00000000 0.01000000 0.00000000
vn 0.00000000 0.01000000 0.00000000
vn 0.00000000 0.01000000 0.00000000
vn 0.00000000 0.01000000 0.00000000
vn 0.00000000 0.01000000 0.00000000
vn 0.00000000 0.01000000 0.00000000
vn 0.00000000 0.01000000 0.00000000
vn 0.00000000 0.01000000 0.00000000
vn 0.00000000 0.01000000 0.00000000
vn 0.00000000 0.01000000 0.00000000
vn 0.00000000 0.01000000 0.00000000
vn 0.00000000 0.01000000 0.00000000
vn 0.00000000 0.01000000 0.00000000
vn 0.00000000 0.01000000 0.00000000
vn 0.00000000 0.01000000 0.00000000
vn 0.00000000 0.01000000 0.00000000
vn 0.00000000 0.01000000 0.00000000
vn 0.00000000 0.01000000 0.00000000
vn 0.00000000 0.01000000 0.00000000
vn 0.00000000 0.01000000 0.00000000
vn 0.00000000 0.01000000 0.00000000
vn 0.00000000 0.01000000 0.00000000
vn 0.00000000 0.01000000 0.00000000
vn 0.00000000 0.01000000 0.00000000
vn 0.00000000 0.01000000 0.00000000
vn 0.00000000 0.01000000 0.00000000
vn 0.00000000 0.01000000 0.00000000
vn 0.00000000 0.01000000 0.00000000
vn 0.00000000 0.01000000 0.00000000
vn 0.00000000 0.01000000 0.00000000
vn 0.00000000 0.01000000 0.00000000
vn 0.00000000 0.01000000 0.00000000
vn 0.00000000 0.01000000 0.00000000
vn 0.00000000 0.01000000 0.00000000
vn 0.00000000 0.01000000 0.00000000
vn 0.00000000 0.01000000 0.00000000
vn 0.00000000 0.01000000 0.00000000
vn 0.00000000 0.01000000 0.00000000
vn 0.00000000 0.01000000 0.00000000
vn 0.00000000 0.01000000 0.00000000
vn 0.00000000 0.01000000 0.00000000
vn 0.00000000 0.01000000 0.00000000
vn 0.00000000 0.01000000 0.00000000
vn 0.00000000 0.01000000 0.00000000
vn 0.00000000 0.01000000 0.00000000
vn 0.00000000 0.01000000 0.00000000
vn 0.00000000 0.01000000 0.00000000
vn 0.00000000 0.01000000 0.00000000
vn 0.00000000 0.01000000 0.00000000
vn 0.00000000 0.01000000 0.00000000
vn 0.00000000 0.01000000 0.00000000
vn 0.00000000 0.01000000 0.00000000
vn 0.00000000 0.01000000 0.00000000
vn 0.00000000 0.01000000 0.00000000
vn 0.00000000 0.01000000 0.00000000
vn 0.00000000 0.01000000 0.00000000
vn 0.00000000 0.01000000 0.00000000
vn 0.00000000 0.01000000 0.00000000
vn 0.00000000 0.01000000 0.00000000
vn 0.00000000 0.01000000 0.00000000
vn 0.00000000 0.01000000 0.00000000
vn 0.00000000 -0.01000000 -0.00000000
vn 0.00000000 -0.01000000 -0.00000000
vn 0.00000000 -0.01000000 -0.00000000
vn 0.00000000 -0.01000000 -0.00000000
vt 0.00000000 1.00000000
vt 1.00000000 1.00000000
vt 1.00000000 0.00000000
vt 0.00000000 0.00000000
vt 0.00000000 1.00000000
vt 1.00000000 1.00000000
vt 1.00000000 0.00000000
vt 0.00000000 0.00000000
vt 0.00000000 1.00000000
vt 1.00000000 1.00000000
vt 1.00000000 0.00000000
vt 0.00000000 0.00000000
vt 0.00000000 1.00000000
vt 1.00000000 1.00000000
vt 1.00000000 0.00000000
vt 0.00000000 0.00000000
vt 0.04100417 0.98656750
vt 0.04329072 0.98703325
vt 0.49501622 0.98703325
vt 0.49730283 0.98656750
vt 0.50269711 0.98656750
vt 0.50498366 0.98703325
vt 0.95670927 0.98703325
vt 0.95899582 0.98656750
vt 0.04100417 0.00946200
vt 0.04329072 0.00992781
vt 0.49501622 0.00992781
vt 0.49730283 0.00946200
vt 0.50000000 0.98640394
vt 0.96169293 0.98640394
vt 0.04100417 0.49801475
vt 0.49730283 0.49801475
vt 0.50000000 0.49785119
vt 0.03830698 0.49785119
vt 0.50269711 0.49801475
vt 0.95899582 0.49801475
vt 0.96169293 0.49785119
vt 0.03830698 0.98640394
vt 0.50269711 0.00946200
vt 0.50498366 0.00992781
vt 0.95670927 0.00992781
vt 0.95899582 0.00946200
vt 0.04329072 0.49848056
vt 0.49501622 0.49848056
vt 0.50498366 0.49848056
vt 0.95670927 0.49848056
vt 0.50651157 0.98773038
vt 0.95518136 0.98773038
vt 0.95518136 0.98937500
vt 0.95464492 0.98855269
vt 0.50704801 0.98855269
vt 0.50651157 0.98937500
vt 0.04481855 0.98773038
vt 0.49348843 0.98773038
vt 0.49501622 0.50151944
vt 0.49348843 0.50082231
vt 0.04481855 0.50082231
vt 0.04329072 0.50151944
vt 0.95518136 0.50082231
vt 0.95464492 0.50000000
vt 0.50704801 0.50000000
vt 0.50651157 0.50082231
vt 0.04481855 0.49917769
vt 0.04535505 0.50000000
vt 0.49295193 0.50000000
vt 0.49348843 0.49917769
vt 0.04535505 0.98855269
vt 0.49295193 0.98855269
vt 0.95670927 0.99007213
vt 0.50498366 0.99007213
vt 0.49501622 0.01296669
vt 0.49348843 0.01226956
vt 0.04481855 0.01226956
vt 0.04329072 0.01296669
vt 0.50651157 0.01062495
vt 0.50704801 0.01144725
vt 0.95464492 0.01144725
vt 0.95518136 0.01062495
vt 0.49295193 0.01144725
vt 0.04535505 0.01144725
vt 0.95670927 0.50151944
vt 0.50498366 0.50151944
vt 0.03830698 0.50214875
vt 0.03560980 0.50198519
vt 0.03560980 0.98656750
vt 0.95670927 0.01296669
vt 0.95518136 0.01226956
vt 0.50651157 0.01226956
vt 0.50498366 0.01296669
vt 0.50651157 0.49917769
vt 0.95518136 0.49917769
vt 0.49501622 0.99007213
vt 0.49348843 0.98937500
vt 0.04481855 0.98937500
vt 0.04329072 0.99007213
vt 0.03830698 0.01359606
vt 0.03560980 0.01343250
vt 0.03560980 0.49801475
vt 0.03332324 0.98703325
vt 0.03332324 0.50151944
vt 0.96439016 0.49801475
vt 0.96439016 0.01343250
vt 0.96169293 0.01359606
vt 0.50000000 0.50214875
vt 0.96169293 0.50214875
vt 0.50000000 0.01359606
vt 0.96439016 0.98656750
vt 0.96439016 0.50198519
vt 0.04481855 0.01062495
vt 0.49348843 0.01062495
vt 0.49730283 0.50198519
vt 0.04100417 0.50198519
vt 0.49730283 0.99053800
vt 0.04100417 0.99053800
vt 0.49730283 0.01343250
vt 0.04100417 0.01343250
vt 0.95899582 0.01343250
vt 0.50269711 0.01343250
vt 0.95899582 0.50198519
vt 0.50269711 0.50198519
vt 0.00000000 1.00000000
vt 0.03179542 0.50082231
vt 1.00000000 1.00000000
vt 0.96667671 0.50151944
vt 0.96667671 0.98703325
vt 0.50000000 0.99070156
vt 1.00000000 0.00000000
vt 0.50000000 0.00929844
vt 0.00000000 0.00000000
vt 0.95899582 0.99053800
vt 0.50269711 0.99053800
vt 0.03332324 0.01296669
vt 0.03125891 0.50000000
vt 0.96667671 0.01296669
vt 0.96874106 0.50000000
vt 0.96874106 0.98855269
vt 0.96820450 0.98937500
vt 0.96667671 0.99007213
vt 0.96820450 0.01062495
vt 0.96874106 0.01144725
vt 0.96667671 0.00992781
vt 0.96439016 0.99053800
vt 0.96439016 0.00946200
vt 0.96169293 0.99070156
vt 0.96169293 0.00929844
vt 0.96820450 0.98773038
vt 0.96820450 0.01226956
vt 0.03830698 0.00929844
vt 0.03560980 0.00946200
vt 0.03332324 0.00992781
vt 0.03179542 0.01062495
vt 0.03125891 0.01144725
vt 0.03179542 0.01226956
vt 0.03830698 0.99070156
vt 0.03560980 0.99053800
vt 0.03332324 0.99007213
vt 0.03179542 0.98937500
vt 0.03125891 0.98855269
vt 0.03179542 0.98773038
vt 0.96820450 0.50082231
vt 0.96820450 0.49917769
vt 0.96667671 0.49848056
vt 0.03332324 0.49848056
vt 0.03179542 0.49917769
vt 0.00000000 1.00000000
vt 1.00000000 1.00000000
vt 1.00000000 0.00000000
vt 0.00000000 0.00000000
f 1/1/1 2/2/2 3/3/3
f 3/3/3 4/4/4 1/1/1
f 5/5/5 6/6/6 7/7/7
f 7/7/7 8/8/8 5/5/5
f 9/9/9 10/10/10 11/11/11
f 11/11/11 12/12/12 9/9/9
f 13/13/13 14/14/14 15/15/15
f 15/15/15 16/16/16 13/13/13
f 17/17/17 18/18/18 19/19/19
f 19/19/19 20/20/20 17/17/17
f 21/21/21 22/22/22 23/23/23
f 23/23/23 24/24/24 21/21/21
f 25/25/25 26/26/26 27/27/27
f 27/27/27 28/28/28 25/25/25
f 29/29/29 21/21/21 24/24/24
f 24/24/24 30/30/30 29/29/29
f 31/31/31 32/32/32 33/33/33
f 33/33/33 34/34/34 31/31/31
f 33/33/33 35/35/35 36/36/36
f 36/36/36 37/37/37 33/33/33
f 17/17/17 20/20/20 29/29/29
f 29/29/29 38/38/38 17/17/17
f 39/39/39 40/40/40 41/41/41
f 41/41/41 42/42/42 39/39/39
f 31/31/31 43/43/43 44/44/44
f 44/44/44 32/32/32 31/31/31
f 35/35/35 45/45/45 46/46/46
f 46/46/46 36/36/36 35/35/35
f 22/22/22 47/47/47 48/48/48
f 48/48/48 23/23/23 22/22/22
f 49/49/49 50/50/50 51/51/51
f 51/51/51 52/52/52 49/49/49
f 47/47/47 51/51/51 50/50/50
f 50/50/50 48/48/48 47/47/47
f 18/18/18 53/53/53 54/54/54
f 54/54/54 19/19/19 18/18/18
f 55/55/55 56/56/56 57/57/57
f 57/57/57 58/58/58 55/55/55
f 59/59/59 60/60/60 61/61/61
f 61/61/61 62/62/62 59/59/59
f 63/63/63 64/64/64 65/65/65
f 65/65/65 66/66/66 63/63/63
f 53/53/53 67/67/67 68/68/68
f 68/68/68 54/54/54 53/53/53
f 69/69/69 49/49/49 52/52/52
f 52/52/52 70/70/70 69/69/69
f 71/71/71 72/72/72 73/73/73
f 73/73/73 74/74/74 71/71/71
f 75/75/75 76/76/76 77/77/77
f 77/77/77 78/78/78 75/75/75
f 72/72/72 79/79/79 80/80/80
f 80/80/80 73/73/73 72/72/72
f 81/81/81 59/59/59 62/62/62
f 62/62/62 82/82/82 81/81/81
f 38/38/38 83/83/83 84/84/84
f 84/84/84 85/85/85 38/38/38
f 40/40/40 75/75/75 78/78/78
f 78/78/78 41/41/41 40/40/40
f 56/56/56 65/65/65 64/64/64
f 64/64/64 57/57/57 56/56/56
f 86/86/86 87/87/87 88/88/88
f 88/88/88 89/89/89 86/86/86
f 45/45/45 90/90/90 91/91/91
f 91/91/91 46/46/46 45/45/45
f 92/92/92 93/93/93 94/94/94
f 94/94/94 95/95/95 92/92/92
f 34/34/34 96/96/96 97/97/97
f 97/97/97 98/98/98 34/34/34
f 99/99/99 85/85/85 84/84/84
f 84/84/84 100/100/100 99/99/99
f 43/43/43 63/63/63 66/66/66
f 66/66/66 44/44/44 43/43/43
f 37/37/37 101/101/101 102/102/102
f 102/102/102 103/103/103 37/37/37
f 87/87/87 77/77/77 76/76/76
f 76/76/76 88/88/88 87/87/87
f 29/29/29 104/104/104 83/83/83
f 83/83/83 38/38/38 29/29/29
f 30/30/30 105/105/105 104/104/104
f 104/104/104 29/29/29 30/30/30
f 37/37/37 103/103/103 106/106/106
f 106/106/106 33/33/33 37/37/37
f 30/30/30 107/107/107 108/108/108
f 108/108/108 105/105/105 30/30/30
f 109/109/109 80/80/80 79/79/79
f 79/79/79 110/110/110 109/109/109
f 33/33/33 106/106/106 96/96/96
f 96/96/96 34/34/34 33/33/33
f 90/90/90 61/61/61 60/60/60
f 60/60/60 91/91/91 90/90/90
f 26/26/26 109/109/109 110/110/110
f 110/110/110 27/27/27 26/26/26
f 93/93/93 68/68/68 67/67/67
f 67/67/67 94/94/94 93/93/93
f 111/111/111 112/112/112 83/83/83
f 83/83/83 104/104/104 111/111/111
f 111/111/111 55/55/55 58/58/58
f 58/58/58 112/112/112 111/111/111
f 113/113/113 92/92/92 95/95/95
f 95/95/95 114/114/114 113/113/113
f 115/115/115 116/116/116 96/96/96
f 96/96/96 106/106/106 115/115/115
f 117/117/117 118/118/118 106/106/106
f 106/106/106 103/103/103 117/117/117
f 117/117/117 86/86/86 89/89/89
f 89/89/89 118/118/118 117/117/117
f 119/119/119 120/120/120 104/104/104
f 104/104/104 105/105/105 119/119/119
f 115/115/115 71/71/71 74/74/74
f 74/74/74 116/116/116 115/115/115
f 119/119/119 81/81/81 82/82/82
f 82/82/82 120/120/120 119/119/119
f 121/121/121 99/99/99 100/100/100
f 100/100/100 122/122/122 121/121/121
f 123/123/123 124/124/124 108/108/108
f 108/108/108 125/125/125 123/123/123
f 121/121/121 126/126/126 113/113/113
f 113/113/113 114/114/114 121/121/121
f 39/39/39 42/42/42 127/127/127
f 127/127/127 128/128/128 39/39/39
f 28/28/28 128/128/128 129/129/129
f 129/129/129 25/25/25 28/28/28
f 123/123/123 130/130/130 70/70/70
f 70/70/70 131/131/131 123/123/123
f 97/97/97 132/132/132 121/121/121
f 121/121/121 133/133/133 97/97/97
f 123/123/123 134/134/134 102/102/102
f 102/102/102 135/135/135 123/123/123
f 123/123/123 136/136/136 137/137/137
f 123/123/123 137/137/137 138/138/138
f 139/139/139 140/140/140 127/127/127
f 141/141/141 139/139/139 127/127/127
f 123/123/123 138/138/138 142/142/142
f 143/143/143 141/141/141 127/127/127
f 123/123/123 142/142/142 144/144/144
f 145/145/145 143/143/143 127/127/127
f 146/146/146 136/136/136 123/123/123
f 127/127/127 140/140/140 147/147/147
f 123/123/123 144/144/144 130/130/130
f 42/42/42 145/145/145 127/127/127
f 130/130/130 69/69/69 70/70/70
f 127/127/127 147/147/147 134/134/134
f 125/125/125 146/146/146 123/123/123
f 128/128/128 127/127/127 129/129/129
f 148/148/148 25/25/25 129/129/129
f 149/149/149 148/148/148 129/129/129
f 150/150/150 149/149/149 129/129/129
f 151/151/151 150/150/150 129/129/129
f 152/152/152 151/151/151 129/129/129
f 153/153/153 152/152/152 129/129/129
f 132/132/132 153/153/153 129/129/129
f 123/123/123 131/131/131 126/126/126
f 121/121/121 123/123/123 126/126/126
f 121/121/121 114/114/114 154/154/154
f 121/121/121 154/154/154 155/155/155
f 121/121/121 155/155/155 156/156/156
f 121/121/121 156/156/156 157/157/157
f 121/121/121 157/157/157 158/158/158
f 121/121/121 158/158/158 159/159/159
f 121/121/121 159/159/159 99/99/99
f 132/132/132 129/129/129 121/121/121
f 123/123/123 127/127/127 134/134/134
f 123/123/123 135/135/135 160/160/160
f 123/123/123 160/160/160 124/124/124
f 107/107/107 125/125/125 108/108/108
f 161/161/161 135/135/135 102/102/102
f 162/162/162 161/161/161 102/102/102
f 101/101/101 162/162/162 102/102/102
f 163/163/163 98/98/98 97/97/97
f 164/164/164 163/163/163 97/97/97
f 133/133/133 164/164/164 97/97/97
f 122/122/122 133/133/133 121/121/121
f 165/165/165 166/166/166 167/167/167
f 167/167/167 168/168/168 165/165/165