v 1.27704626 0.03468932 -1.03193366
v 1.27704626 0.04120465 -1.03193366
v 3.10858510 0.04120443 0.15748152
v 3.10858510 0.03468910 0.15748152
v -0.62024234 0.03468920 1.64270943
v -0.62024234 0.04120453 1.64270943
v 1.09101170 0.04120466 -0.99239084
v 1.09101170 0.03468933 -0.99239084
v 1.25083942 0.03468896 3.01815914
v 1.25083942 0.04120429 3.01815914
v -0.58069942 0.04120451 1.82874397
v -0.58069942 0.03468918 1.82874396
v 1.28252710 0.03468896 3.03327324
v 1.28252710 0.04120429 3.03327324
v 1.31704692 0.03468895 3.03967111
v 1.31704692 0.04120429 3.03967111
v 1.35204633 0.03468895 3.03691658
v 1.35204633 0.04120428 3.03691658
v 1.38514016 0.03468895 3.02519744
v 1.38514016 0.04120428 3.02519744
v 1.41407333 0.03468895 3.00531222
v 1.41407333 0.04120428 3.00531222
v 1.43687397 0.03468895 2.97861632
v 1.43687397 0.04120428 2.97861632
v 1.11381234 0.04120466 -1.01908673
v 1.11381234 0.03468933 -1.01908673
v 1.14274551 0.04120466 -1.03897196
v 1.14274551 0.03468933 -1.03897196
v 1.17583934 0.04120466 -1.05069109
v 1.17583934 0.03468933 -1.05069109
v 1.21083876 0.04120466 -1.05344562
v 1.21083876 0.03468932 -1.05344562
v 1.24535857 0.04120465 -1.04704775
v 1.24535857 0.03468932 -1.04704775
v -0.63535640 0.03468920 1.67439705
v -0.63535640 0.04120453 1.67439706
v -0.64175427 0.03468920 1.70891687
v -0.64175427 0.04120453 1.70891687
v -0.63899976 0.03468919 1.74391619
v -0.63899976 0.04120452 1.74391619
v -0.62728060 0.03468919 1.77701011
v -0.62728060 0.04120452 1.77701012
v -0.60739538 0.03468919 1.80594328
v -0.60739538 0.04120452 1.80594328
v 3.14812802 0.04120441 0.34351605
v 3.14812802 0.03468908 0.34351605
v 3.16324207 0.03468908 0.31182843
v 3.16324207 0.04120441 0.31182843
v 3.16963995 0.03468908 0.27730862
v 3.16963995 0.04120441 0.27730862
v 3.16688543 0.03468909 0.24230930
v 3.16688543 0.04120442 0.24230930
v 3.15516628 0.03468909 0.20921537
v 3.15516628 0.04120442 0.20921537
v 3.13528105 0.03468909 0.18028220
v 3.13528106 0.04120443 0.18028220
v 1.25083942 0.04120429 3.01815914
v 1.28252710 0.04120429 3.03327324
v 1.31704692 0.04120429 3.03967111
v 1.35204633 0.04120428 3.03691658
v 1.38514016 0.04120428 3.02519744
v 1.41407333 0.04120428 3.00531222
v 1.43687397 0.04120428 2.97861632
v 3.14812802 0.04120441 0.34351605
v 3.16324207 0.04120441 0.31182843
v 3.16963995 0.04120441 0.27730862
v 3.16688543 0.04120442 0.24230930
v 3.15516628 0.04120442 0.20921537
v 3.13528106 0.04120443 0.18028220
v 3.10858510 0.04120443 0.15748152
v 1.27704626 0.04120465 -1.03193366
v 1.24535857 0.04120465 -1.04704775
v 1.21083876 0.04120466 -1.05344562
v 1.17583934 0.04120466 -1.05069109
v 1.14274551 0.04120466 -1.03897196
v 1.11381234 0.04120466 -1.01908673
v 1.09101170 0.04120466 -0.99239084
v -0.62024234 0.04120453 1.64270943
v -0.63535640 0.04120453 1.67439706
v -0.64175427 0.04120453 1.70891687
v -0.63899976 0.04120452 1.74391619
v -0.62728060 0.04120452 1.77701012
v -0.60739538 0.04120452 1.80594328
v -0.58069942 0.04120451 1.82874397
vn 18.72655169 0.00000179 -33.43886933
vn 18.72655169 0.00000179 -33.43886933
vn 22.93115108 0.00000129 -30.70837069
vn 22.93115108 0.00000129 -30.70837069
vn -33.43886259 0.00000376 -18.72657046
vn -33.43886259 0.00000376 -18.72657046
vn -30.70838509 0.00000396 -22.93113729
vn -30.70838509 0.00000396 -22.93113729
vn -18.72655169 -0.00000179 33.43886933
vn -18.72655169 -0.00000179 33.43886933
vn -22.93115108 -0.00000129 30.70837069
vn -22.93115108 -0.00000129 30.70837069
vn -11.84312079 -0.00000249 36.44972321
vn -11.84312079 -0.00000249 36.44972321
vn -2.00580560 -0.00000327 38.27295025
vn -2.00580560 -0.00000327 38.27295025
vn 7.96831722 -0.00000383 37.48796558
vn 7.96831722 -0.00000383 37.48796558
vn 17.39941806 -0.00000412 34.14823641
vn 17.39941806 -0.00000412 34.14823641
vn 25.64468918 -0.00000414 28.48142751
vn 25.64468918 -0.00000414 28.48142751
vn 30.70838509 -0.00000396 22.93113729
vn 30.70838509 -0.00000396 22.93113729
vn -25.64468918 0.00000414 -28.48142751
vn -25.64468918 0.00000414 -28.48142751
vn -17.39941806 0.00000412 -34.14823641
vn -17.39941806 0.00000412 -34.14823641
vn -7.96831722 0.00000383 -37.48796558
vn -7.96831722 0.00000383 -37.48796558
vn 2.00580560 0.00000327 -38.27295025
vn 2.00580560 0.00000327 -38.27295025
vn 11.84312079 0.00000249 -36.44972321
vn 11.84312079 0.00000249 -36.44972321
vn -36.44971403 0.00000334 -11.84314751
vn -36.44971403 0.00000334 -11.84314751
vn -38.27294724 0.00000258 -2.00581862
vn -38.27294724 0.00000258 -2.00581862
vn -37.48796693 0.00000165 7.96831090
vn -37.48796693 0.00000165 7.96831090
vn -34.14824446 0.00000060 17.39940739
vn -34.14824446 0.00000060 17.39940739
vn -28.48144677 -0.00000049 25.64466850
vn -28.48144677 -0.00000049 25.64466850
vn 33.43886259 -0.00000376 18.72657046
vn 33.43886259 -0.00000376 18.72657046
vn 36.44971403 -0.00000334 11.84314751
vn 36.44971403 -0.00000334 11.84314751
vn 38.27294724 -0.00000258 2.00581862
vn 38.27294724 -0.00000258 2.00581862
vn 37.48796693 -0.00000165 -7.96831090
vn 37.48796693 -0.00000165 -7.96831090
vn 34.14824446 -0.00000060 -17.39940739
vn 34.14824446 -0.00000060 -17.39940739
vn 28.48144677 0.00000049 -25.64466850
vn 28.48144677 0.00000049 -25.64466850
vn 0.00000241 38.32547379 0.00000340
vn 0.00000241 38.32547379 0.00000340
vn 0.00000241 38.32547379 0.00000340
vn 0.00000241 38.32547379 0.00000340
vn 0.00000241 38.32547379 0.00000340
vn 0.00000241 38.32547379 0.00000340
vn 0.00000241 38.32547379 0.00000340
vn 0.00000241 38.32547379 0.00000340
vn 0.00000241 38.32547379 0.00000340
vn 0.00000241 38.32547379 0.00000340
vn 0.00000241 38.32547379 0.00000340
vn 0.00000241 38.32547379 0.00000340
vn 0.00000241 38.32547379 0.00000340
vn 0.00000241 38.32547379 0.00000340
vn 0.00000241 38.32547379 0.00000340
vn 0.00000241 38.32547379 0.00000340
vn 0.00000241 38.32547379 0.00000340
vn 0.00000241 38.32547379 0.00000340
vn 0.00000241 38.32547379 0.00000340
vn 0.00000241 38.32547379 0.00000340
vn 0.00000241 38.32547379 0.00000340
vn 0.00000241 38.32547379 0.00000340
vn 0.00000241 38.32547379 0.00000340
vn 0.00000241 38.32547379 0.00000340
vn 0.00000241 38.32547379 0.00000340
vn 0.00000241 38.32547379 0.00000340
vn 0.00000241 38.32547379 0.00000340
vn 0.00000241 38.32547379 0.00000340
vt 0.69689941 0.50152081
vt 0.69689941 0.50152081
vt 0.76528752 0.50152081
vt 0.76528752 0.50152081
vt 0.69268805 0.74104786
vt 0.69268805 0.74104786
vt 0.69268805 0.51135230
vt 0.69268805 0.51135230
vt 0.76528746 0.75087935
vt 0.76528746 0.75087935
vt 0.69689941 0.75087935
vt 0.69689941 0.75087935
vt 0.76637745 0.75054443
vt 0.76637745 0.75054443
vt 0.76739323 0.74956220
vt 0.76739323 0.74956220
vt 0.76826543 0.74799985
vt 0.76826543 0.74799985
vt 0.76893467 0.74596369
vt 0.76893467 0.74596369
vt 0.76935536 0.74359244
vt 0.76935536 0.74359244
vt 0.76949888 0.74104786
vt 0.76949888 0.74104786
vt 0.69283152 0.50880778
vt 0.69283152 0.50880778
vt 0.69325227 0.50643653
vt 0.69325227 0.50643653
vt 0.69392151 0.50440037
vt 0.69392151 0.50440037
vt 0.69479370 0.50283796
vt 0.69479370 0.50283796
vt 0.69580942 0.50185573
vt 0.69580942 0.50185573
vt 0.69283152 0.74359244
vt 0.69283152 0.74359244
vt 0.69325227 0.74596369
vt 0.69325227 0.74596369
vt 0.69392151 0.74799985
vt 0.69392151 0.74799985
vt 0.69479370 0.74956220
vt 0.69479370 0.74956220
vt 0.69580942 0.75054443
vt 0.69580942 0.75054443
vt 0.76949894 0.51135230
vt 0.76949894 0.51135230
vt 0.76935542 0.50880778
vt 0.76935542 0.50880778
vt 0.76893467 0.50643653
vt 0.76893467 0.50643653
vt 0.76826543 0.50440037
vt 0.76826543 0.50440037
vt 0.76739323 0.50283796
vt 0.76739323 0.50283796
vt 0.76637751 0.50185573
vt 0.76637751 0.50185573
vt 0.76528746 0.75087935
vt 0.76637745 0.75054443
vt 0.76739323 0.74956220
vt 0.76826543 0.74799985
vt 0.76893467 0.74596369
vt 0.76935536 0.74359244
vt 0.76949888 0.74104786
vt 0.76949894 0.51135230
vt 0.76935542 0.50880778
vt 0.76893467 0.50643653
vt 0.76826543 0.50440037
vt 0.76739323 0.50283796
vt 0.76637751 0.50185573
vt 0.76528752 0.50152081
vt 0.69689941 0.50152081
vt 0.69580942 0.50185573
vt 0.69479370 0.50283796
vt 0.69392151 0.50440037
vt 0.69325227 0.50643653
vt 0.69283152 0.50880778
vt 0.69268805 0.51135230
vt 0.69268805 0.74104786
vt 0.69283152 0.74359244
vt 0.69325227 0.74596369
vt 0.69392151 0.74799985
vt 0.69479370 0.74956220
vt 0.69580942 0.75054443
vt 0.69689941 0.75087935
f 1/1/1 2/2/2 3/3/3
f 1/1/1 3/3/3 4/4/4
f 5/5/5 6/6/6 7/7/7
f 5/5/5 7/7/7 8/8/8
f 9/9/9 10/10/10 11/11/11
f 9/9/9 11/11/11 12/12/12
f 10/10/10 9/9/9 13/13/13
f 10/10/10 13/13/13 14/14/14
f 14/14/14 13/13/13 15/15/15
f 14/14/14 15/15/15 16/16/16
f 16/16/16 15/15/15 17/17/17
f 16/16/16 17/17/17 18/18/18
f 18/18/18 17/17/17 19/19/19
f 18/18/18 19/19/19 20/20/20
f 20/20/20 19/19/19 21/21/21
f 20/20/20 21/21/21 22/22/22
f 22/22/22 21/21/21 23/23/23
f 22/22/22 23/23/23 24/24/24
f 8/8/8 7/7/7 25/25/25
f 8/8/8 25/25/25 26/26/26
f 26/26/26 25/25/25 27/27/27
f 26/26/26 27/27/27 28/28/28
f 28/28/28 27/27/27 29/29/29
f 28/28/28 29/29/29 30/30/30
f 30/30/30 29/29/29 31/31/31
f 30/30/30 31/31/31 32/32/32
f 32/32/32 31/31/31 33/33/33
f 32/32/32 33/33/33 34/34/34
f 34/34/34 33/33/33 2/2/2
f 34/34/34 2/2/2 1/1/1
f 6/6/6 5/5/5 35/35/35
f 6/6/6 35/35/35 36/36/36
f 36/36/36 35/35/35 37/37/37
f 36/36/36 37/37/37 38/38/38
f 38/38/38 37/37/37 39/39/39
f 38/38/38 39/39/39 40/40/40
f 40/40/40 39/39/39 41/41/41
f 40/40/40 41/41/41 42/42/42
f 42/42/42 41/41/41 43/43/43
f 42/42/42 43/43/43 44/44/44
f 44/44/44 43/43/43 12/12/12
f 44/44/44 12/12/12 11/11/11
f 45/45/45 46/46/46 47/47/47
f 45/45/45 47/47/47 48/48/48
f 48/48/48 47/47/47 49/49/49
f 48/48/48 49/49/49 50/50/50
f 50/50/50 49/49/49 51/51/51
f 50/50/50 51/51/51 52/52/52
f 52/52/52 51/51/51 53/53/53
f 52/52/52 53/53/53 54/54/54
f 54/54/54 53/53/53 55/55/55
f 54/54/54 55/55/55 56/56/56
f 56/56/56 55/55/55 4/4/4
f 56/56/56 4/4/4 3/3/3
f 46/46/46 45/45/45 24/24/24
f 46/46/46 24/24/24 23/23/23
f 72/72/72 70/70/70 71/71/71
f 70/70/70 72/72/72 69/69/69
f 69/69/69 72/72/72 73/73/73
f 69/69/69 73/73/73 68/68/68
f 68/68/68 73/73/73 74/74/74
f 68/68/68 74/74/74 67/67/67
f 67/67/67 74/74/74 75/75/75
f 67/67/67 75/75/75 66/66/66
f 66/66/66 75/75/75 76/76/76
f 66/66/66 76/76/76 65/65/65
f 65/65/65 76/76/76 77/77/77
f 65/65/65 77/77/77 64/64/64
f 64/64/64 77/77/77 78/78/78
f 64/64/64 78/78/78 63/63/63
f 63/63/63 78/78/78 79/79/79
f 63/63/63 79/79/79 62/62/62
f 62/62/62 79/79/79 80/80/80
f 62/62/62 80/80/80 61/61/61
f 61/61/61 80/80/80 81/81/81
f 61/61/61 81/81/81 60/60/60
f 60/60/60 81/81/81 82/82/82
f 60/60/60 82/82/82 59/59/59
f 59/59/59 82/82/82 83/83/83
f 59/59/59 83/83/83 58/58/58
f 58/58/58 83/83/83 84/84/84
f 58/58/58 84/84/84 57/57/57