v -1.48117965 0.02561755 -1.45412097
v -1.48117965 0.03213288 -1.45412097
v 0.66950209 0.03213498 -1.07489773
v 0.66950210 0.02561965 -1.07489773
v -2.18257675 0.02561760 1.74923041
v -2.18257675 0.03213293 1.74923041
v -1.63697474 0.03213276 -1.34503214
v -1.63697474 0.02561743 -1.34503214
v 0.07719391 0.02561983 2.28424869
v 0.07719391 0.03213516 2.28424869
v -2.07348784 0.03213306 1.90502544
v -2.07348783 0.02561773 1.90502544
v 0.11226812 0.02561986 2.28577992
v 0.11226812 0.03213519 2.28577992
v 0.14654363 0.02561989 2.27818123
v 0.14654362 0.03213523 2.27818123
v 0.17768448 0.02561992 2.26197031
v 0.17768447 0.03213525 2.26197031
v 0.20356847 0.02561994 2.23825201
v 0.20356847 0.03213527 2.23825200
v 0.22243182 0.02561995 2.20864247
v 0.22243181 0.03213528 2.20864247
v 0.23298900 0.02561995 2.17515986
v 0.23298900 0.03213528 2.17515985
v -1.62641756 0.03213276 -1.37851476
v -1.62641755 0.02561743 -1.37851476
v -1.60755421 0.03213277 -1.40812429
v -1.60755421 0.02561744 -1.40812429
v -1.58167021 0.03213279 -1.43184260
v -1.58167021 0.02561746 -1.43184259
v -1.55052937 0.03213282 -1.44805352
v -1.55052936 0.02561748 -1.44805351
v -1.51625386 0.03213285 -1.45565221
v -1.51625386 0.02561752 -1.45565221
v -2.18410797 0.02561760 1.78430455
v -2.18410798 0.03213293 1.78430455
v -2.17650928 0.02561762 1.81858005
v -2.17650929 0.03213295 1.81858005
v -2.16029842 0.02561764 1.84972082
v -2.16029842 0.03213297 1.84972082
v -2.13658005 0.02561767 1.87560490
v -2.13658006 0.03213300 1.87560490
v -2.10697052 0.02561770 1.89446825
v -2.10697053 0.03213303 1.89446825
v 0.77859101 0.03213511 -0.91910269
v 0.77859101 0.02561978 -0.91910269
v 0.78012224 0.02561978 -0.95417683
v 0.78012223 0.03213511 -0.95417683
v 0.77252355 0.02561976 -0.98845234
v 0.77252354 0.03213509 -0.98845234
v 0.75631268 0.02561974 -1.01959310
v 0.75631268 0.03213507 -1.01959310
v 0.73259432 0.02561971 -1.04547718
v 0.73259431 0.03213504 -1.04547718
v 0.70298479 0.02561968 -1.06434053
v 0.70298478 0.03213501 -1.06434053
v 0.07719391 0.03213516 2.28424869
v 0.11226812 0.03213519 2.28577992
v 0.14654362 0.03213523 2.27818123
v 0.17768447 0.03213525 2.26197031
v 0.20356847 0.03213527 2.23825200
v 0.22243181 0.03213528 2.20864247
v 0.23298900 0.03213528 2.17515985
v 0.77859101 0.03213511 -0.91910269
v 0.78012223 0.03213511 -0.95417683
v 0.77252354 0.03213509 -0.98845234
v 0.75631268 0.03213507 -1.01959310
v 0.73259431 0.03213504 -1.04547718
v 0.70298478 0.03213501 -1.06434053
v 0.66950209 0.03213498 -1.07489773
v -1.48117965 0.03213288 -1.45412097
v -1.51625386 0.03213285 -1.45565221
v -1.55052937 0.03213282 -1.44805352
v -1.58167021 0.03213279 -1.43184260
v -1.60755421 0.03213277 -1.40812429
v -1.62641756 0.03213276 -1.37851476
v -1.63697474 0.03213276 -1.34503214
v -2.18257675 0.03213293 1.74923041
v -2.18410798 0.03213293 1.78430455
v -2.17650929 0.03213295 1.81858005
v -2.16029842 0.03213297 1.84972082
v -2.13658006 0.03213300 1.87560490
v -2.10697053 0.03213303 1.89446825
v -2.07348784 0.03213306 1.90502544
vn 4.17227550 -0.00000448 -38.09768503
vn 4.17227550 -0.00000448 -38.09768503
vn 9.10952005 0.00000034 -37.22711554
vn 9.10952005 0.00000034 -37.22711554
vn -38.09768615 -0.00003659 -4.17229542
vn -38.09768615 -0.00003659 -4.17229542
vn -37.22712341 -0.00003686 -9.10950172
vn -37.22712341 -0.00003686 -9.10950172
vn -4.17227550 0.00000448 38.09768503
vn -4.17227550 0.00000448 38.09768503
vn -9.10952005 -0.00000034 37.22711554
vn -9.10952005 -0.00000034 37.22711554
vn 3.34038978 0.00001153 38.17962016
vn 3.34038978 0.00001153 38.17962016
vn 13.10807701 0.00002020 36.01416473
vn 13.10807701 0.00002020 36.01416473
vn 21.98258698 0.00002749 31.39438293
vn 21.98258698 0.00002749 31.39438293
vn 29.35902457 0.00003291 24.63512213
vn 29.35902457 0.00003291 24.63512213
vn 34.73463787 0.00003609 16.19711378
vn 34.73463787 0.00003609 16.19711378
vn 37.22712341 0.00003686 9.10950172
vn 37.22712341 0.00003686 9.10950172
vn -34.73463787 -0.00003609 -16.19711378
vn -34.73463787 -0.00003609 -16.19711378
vn -29.35902457 -0.00003291 -24.63512213
vn -29.35902457 -0.00003291 -24.63512213
vn -21.98258698 -0.00002749 -31.39438293
vn -21.98258698 -0.00002749 -31.39438293
vn -13.10807701 -0.00002020 -36.01416473
vn -13.10807701 -0.00002020 -36.01416473
vn -3.34038978 -0.00001153 -38.17962016
vn -3.34038978 -0.00001153 -38.17962016
vn -38.17962215 -0.00003501 3.34036159
vn -38.17962215 -0.00003501 3.34036159
vn -36.01416705 -0.00003084 13.10806385
vn -36.01416705 -0.00003084 13.10806385
vn -31.39438663 -0.00002456 21.98258169
vn -31.39438663 -0.00002456 21.98258169
vn -24.63513371 -0.00001660 29.35901789
vn -24.63513371 -0.00001660 29.35901789
vn -16.19713959 -0.00000752 34.73462636
vn -16.19713959 -0.00000752 34.73462636
vn 38.09768615 0.00003659 4.17229542
vn 38.09768615 0.00003659 4.17229542
vn 38.17962215 0.00003501 -3.34036159
vn 38.17962215 0.00003501 -3.34036159
vn 36.01416705 0.00003084 -13.10806385
vn 36.01416705 0.00003084 -13.10806385
vn 31.39438663 0.00002456 -21.98258169
vn 31.39438663 0.00002456 -21.98258169
vn 24.63513371 0.00001660 -29.35901789
vn 24.63513371 0.00001660 -29.35901789
vn 16.19713959 0.00000752 -34.73462636
vn 16.19713959 0.00000752 -34.73462636
vn -0.00003588 38.32547379 -0.00000844
vn -0.00003588 38.32547379 -0.00000844
vn -0.00003588 38.32547379 -0.00000844
vn -0.00003588 38.32547379 -0.00000844
vn -0.00003588 38.32547379 -0.00000844
vn -0.00003588 38.32547379 -0.00000844
vn -0.00003588 38.32547379 -0.00000844
vn -0.00003588 38.32547379 -0.00000844
vn -0.00003588 38.32547379 -0.00000844
vn -0.00003588 38.32547379 -0.00000844
vn -0.00003588 38.32547379 -0.00000844
vn -0.00003588 38.32547379 -0.00000844
vn -0.00003588 38.32547379 -0.00000844
vn -0.00003588 38.32547379 -0.00000844
vn -0.00003588 38.32547379 -0.00000844
vn -0.00003588 38.32547379 -0.00000844
vn -0.00003588 38.32547379 -0.00000844
vn -0.00003588 38.32547379 -0.00000844
vn -0.00003588 38.32547379 -0.00000844
vn -0.00003588 38.32547379 -0.00000844
vn -0.00003588 38.32547379 -0.00000844
vn -0.00003588 38.32547379 -0.00000844
vn -0.00003588 38.32547379 -0.00000844
vn -0.00003588 38.32547379 -0.00000844
vn -0.00003588 38.32547379 -0.00000844
vn -0.00003588 38.32547379 -0.00000844
vn -0.00003588 38.32547379 -0.00000844
vn -0.00003588 38.32547379 -0.00000844
vt 0.69689941 0.24961466
vt 0.69689941 0.24961466
vt 0.76528752 0.24961466
vt 0.76528752 0.24961466
vt 0.69268805 0.48914170
vt 0.69268805 0.48914170
vt 0.69268805 0.25944614
vt 0.69268805 0.25944614
vt 0.76528746 0.49897319
vt 0.76528746 0.49897319
vt 0.69689941 0.49897319
vt 0.69689941 0.49897319
vt 0.76637745 0.49863827
vt 0.76637745 0.49863827
vt 0.76739323 0.49765605
vt 0.76739323 0.49765605
vt 0.76826543 0.49609369
vt 0.76826543 0.49609369
vt 0.76893467 0.49405754
vt 0.76893467 0.49405754
vt 0.76935536 0.49168628
vt 0.76935536 0.49168628
vt 0.76949888 0.48914170
vt 0.76949888 0.48914170
vt 0.69283152 0.25690162
vt 0.69283152 0.25690162
vt 0.69325227 0.25453037
vt 0.69325227 0.25453037
vt 0.69392151 0.25249422
vt 0.69392151 0.25249422
vt 0.69479370 0.25093180
vt 0.69479370 0.25093180
vt 0.69580942 0.24994957
vt 0.69580942 0.24994957
vt 0.69283152 0.49168628
vt 0.69283152 0.49168628
vt 0.69325227 0.49405754
vt 0.69325227 0.49405754
vt 0.69392151 0.49609369
vt 0.69392151 0.49609369
vt 0.69479370 0.49765605
vt 0.69479370 0.49765605
vt 0.69580942 0.49863827
vt 0.69580942 0.49863827
vt 0.76949894 0.25944614
vt 0.76949894 0.25944614
vt 0.76935542 0.25690162
vt 0.76935542 0.25690162
vt 0.76893467 0.25453037
vt 0.76893467 0.25453037
vt 0.76826543 0.25249422
vt 0.76826543 0.25249422
vt 0.76739323 0.25093180
vt 0.76739323 0.25093180
vt 0.76637751 0.24994957
vt 0.76637751 0.24994957
vt 0.76528746 0.49897319
vt 0.76637745 0.49863827
vt 0.76739323 0.49765605
vt 0.76826543 0.49609369
vt 0.76893467 0.49405754
vt 0.76935536 0.49168628
vt 0.76949888 0.48914170
vt 0.76949894 0.25944614
vt 0.76935542 0.25690162
vt 0.76893467 0.25453037
vt 0.76826543 0.25249422
vt 0.76739323 0.25093180
vt 0.76637751 0.24994957
vt 0.76528752 0.24961466
vt 0.69689941 0.24961466
vt 0.69580942 0.24994957
vt 0.69479370 0.25093180
vt 0.69392151 0.25249422
vt 0.69325227 0.25453037
vt 0.69283152 0.25690162
vt 0.69268805 0.25944614
vt 0.69268805 0.48914170
vt 0.69283152 0.49168628
vt 0.69325227 0.49405754
vt 0.69392151 0.49609369
vt 0.69479370 0.49765605
vt 0.69580942 0.49863827
vt 0.69689941 0.49897319
f 1/1/1 2/2/2 3/3/3
f 1/1/1 3/3/3 4/4/4
f 5/5/5 6/6/6 7/7/7
f 5/5/5 7/7/7 8/8/8
f 9/9/9 10/10/10 11/11/11
f 9/9/9 11/11/11 12/12/12
f 10/10/10 9/9/9 13/13/13
f 10/10/10 13/13/13 14/14/14
f 14/14/14 13/13/13 15/15/15
f 14/14/14 15/15/15 16/16/16
f 16/16/16 15/15/15 17/17/17
f 16/16/16 17/17/17 18/18/18
f 18/18/18 17/17/17 19/19/19
f 18/18/18 19/19/19 20/20/20
f 20/20/20 19/19/19 21/21/21
f 20/20/20 21/21/21 22/22/22
f 22/22/22 21/21/21 23/23/23
f 22/22/22 23/23/23 24/24/24
f 8/8/8 7/7/7 25/25/25
f 8/8/8 25/25/25 26/26/26
f 26/26/26 25/25/25 27/27/27
f 26/26/26 27/27/27 28/28/28
f 28/28/28 27/27/27 29/29/29
f 28/28/28 29/29/29 30/30/30
f 30/30/30 29/29/29 31/31/31
f 30/30/30 31/31/31 32/32/32
f 32/32/32 31/31/31 33/33/33
f 32/32/32 33/33/33 34/34/34
f 34/34/34 33/33/33 2/2/2
f 34/34/34 2/2/2 1/1/1
f 6/6/6 5/5/5 35/35/35
f 6/6/6 35/35/35 36/36/36
f 36/36/36 35/35/35 37/37/37
f 36/36/36 37/37/37 38/38/38
f 38/38/38 37/37/37 39/39/39
f 38/38/38 39/39/39 40/40/40
f 40/40/40 39/39/39 41/41/41
f 40/40/40 41/41/41 42/42/42
f 42/42/42 41/41/41 43/43/43
f 42/42/42 43/43/43 44/44/44
f 44/44/44 43/43/43 12/12/12
f 44/44/44 12/12/12 11/11/11
f 45/45/45 46/46/46 47/47/47
f 45/45/45 47/47/47 48/48/48
f 48/48/48 47/47/47 49/49/49
f 48/48/48 49/49/49 50/50/50
f 50/50/50 49/49/49 51/51/51
f 50/50/50 51/51/51 52/52/52
f 52/52/52 51/51/51 53/53/53
f 52/52/52 53/53/53 54/54/54
f 54/54/54 53/53/53 55/55/55
f 54/54/54 55/55/55 56/56/56
f 56/56/56 55/55/55 4/4/4
f 56/56/56 4/4/4 3/3/3
f 46/46/46 45/45/45 24/24/24
f 46/46/46 24/24/24 23/23/23
f 72/72/72 70/70/70 71/71/71
f 70/70/70 72/72/72 69/69/69
f 69/69/69 72/72/72 73/73/73
f 69/69/69 73/73/73 68/68/68
f 68/68/68 73/73/73 74/74/74
f 68/68/68 74/74/74 67/67/67
f 67/67/67 74/74/74 75/75/75
f 67/67/67 75/75/75 66/66/66
f 66/66/66 75/75/75 76/76/76
f 66/66/66 76/76/76 65/65/65
f 65/65/65 76/76/76 77/77/77
f 65/65/65 77/77/77 64/64/64
f 64/64/64 77/77/77 78/78/78
f 64/64/64 78/78/78 63/63/63
f 63/63/63 78/78/78 79/79/79
f 63/63/63 79/79/79 62/62/62
f 62/62/62 79/79/79 80/80/80
f 62/62/62 80/80/80 61/61/61
f 61/61/61 80/80/80 81/81/81
f 61/61/61 81/81/81 60/60/60
f 60/60/60 81/81/81 82/82/82
f 60/60/60 82/82/82 59/59/59
f 59/59/59 82/82/82 83/83/83
f 59/59/59 83/83/83 58/58/58
f 58/58/58 83/83/83 84/84/84
f 58/58/58 84/84/84 57/57/57