# ZUP
v -0.82493740 1.28915526 0.02125958
v -0.78987790 1.28731772 0.02125952
v -0.75648850 1.27646884 0.02125946
v -0.72704476 1.25734783 0.02125942
v -0.70355323 1.23125783 0.02125938
v -0.68761468 1.19997664 0.02125936
v -0.68031528 1.16563630 0.02125935
v -0.43379782 -1.96667500 0.02125935
v -0.43563537 -2.00173443 0.02125936
v -0.44648425 -2.03512384 0.02125938
v -0.46560520 -2.06456749 0.02125942
v -0.49169526 -2.08805910 0.02125946
v -0.52297645 -2.10399765 0.02125952
v -0.55731686 -2.11129706 0.02125958
v -2.73444457 -2.28264018 0.02126332
v -2.76950407 -2.28080264 0.02126338
v -2.80289348 -2.26995376 0.02126344
v -2.83233721 -2.25083274 0.02126348
v -2.85582874 -2.22474275 0.02126352
v -2.87176729 -2.19346155 0.02126354
v -2.87906670 -2.15912122 0.02126355
v -3.12558415 0.97319009 0.02126355
v -3.12374661 1.00824952 0.02126354
v -3.11289773 1.04163892 0.02126352
v -3.09377678 1.07108258 0.02126348
v -3.06768672 1.09457418 0.02126344
v -3.03640552 1.11051273 0.02126338
v -3.00206511 1.11781215 0.02126332
vn -0.00006544 -0.00000515 -38.32547379
vn -0.00006544 -0.00000515 -38.32547379
vn -0.00006544 -0.00000515 -38.32547379
vn -0.00006544 -0.00000515 -38.32547379
vn -0.00006544 -0.00000515 -38.32547379
vn -0.00006544 -0.00000515 -38.32547379
vn -0.00006544 -0.00000515 -38.32547379
vn -0.00006544 -0.00000515 -38.32547379
vn -0.00006544 -0.00000515 -38.32547379
vn -0.00006544 -0.00000515 -38.32547379
vn -0.00006544 -0.00000515 -38.32547379
vn -0.00006544 -0.00000515 -38.32547379
vn -0.00006544 -0.00000515 -38.32547379
vn -0.00006544 -0.00000515 -38.32547379
vn -0.00006544 -0.00000515 -38.32547379
vn -0.00006544 -0.00000515 -38.32547379
vn -0.00006544 -0.00000515 -38.32547379
vn -0.00006544 -0.00000515 -38.32547379
vn -0.00006544 -0.00000515 -38.32547379
vn -0.00006544 -0.00000515 -38.32547379
vn -0.00006544 -0.00000515 -38.32547379
vn -0.00006544 -0.00000515 -38.32547379
vn -0.00006544 -0.00000515 -38.32547379
vn -0.00006544 -0.00000515 -38.32547379
vn -0.00006544 -0.00000515 -38.32547379
vn -0.00006544 -0.00000515 -38.32547379
vn -0.00006544 -0.00000515 -38.32547379
vn -0.00006544 -0.00000515 -38.32547379
f 2//2 28//28 1//1
f 28//28 2//2 27//27
f 27//27 2//2 3//3
f 27//27 3//3 26//26
f 26//26 3//3 4//4
f 26//26 4//4 25//25
f 25//25 4//4 5//5
f 25//25 5//5 24//24
f 24//24 5//5 6//6
f 24//24 6//6 23//23
f 23//23 6//6 7//7
f 23//23 7//7 22//22
f 22//22 7//7 8//8
f 22//22 8//8 21//21
f 21//21 8//8 9//9
f 21//21 9//9 20//20
f 20//20 9//9 10//10
f 20//20 10//10 19//19
f 19//19 10//10 11//11
f 19//19 11//11 18//18
f 18//18 11//11 12//12
f 18//18 12//12 17//17
f 17//17 12//12 13//13
f 17//17 13//13 16//16
f 16//16 13//13 14//14
f 16//16 14//14 15//15