# ZUP
v 0.18457957 1.36088322 0.03010919
v 0.18457957 1.36088322 0.03662453
v 2.17963479 0.47262726 0.03662473
v 2.17963479 0.47262726 0.03010939
v -1.27094429 -1.57763207 0.03010933
v -1.27094429 -1.57763207 0.03662466
v 0.00702125 1.29272504 0.03662452
v 0.00702125 1.29272504 0.03010919
v 0.79226921 -2.64344631 0.03010955
v 0.79226921 -2.64344631 0.03662488
v -1.20278601 -1.75519035 0.03662468
v -1.20278600 -1.75519035 0.03010935
v 0.82593113 -2.65341729 0.03010955
v 0.82593113 -2.65341729 0.03662488
v 0.86102680 -2.65433631 0.03010956
v 0.86102680 -2.65433631 0.03662489
v 0.89516442 -2.64614057 0.03010956
v 0.89516442 -2.64614057 0.03662489
v 0.92601753 -2.62938871 0.03010956
v 0.92601753 -2.62938871 0.03662489
v 0.95148376 -2.60522216 0.03010956
v 0.95148376 -2.60522216 0.03662489
v 0.96982753 -2.57528813 0.03010956
v 0.96982753 -2.57528813 0.03662489
v 0.02536502 1.32265907 0.03662452
v 0.02536502 1.32265907 0.03010919
v 0.05083125 1.34682562 0.03662452
v 0.05083125 1.34682562 0.03010919
v 0.08168436 1.36357748 0.03662452
v 0.08168436 1.36357748 0.03010919
v 0.11582198 1.37177322 0.03662452
v 0.11582198 1.37177322 0.03010919
v 0.15091765 1.37085420 0.03662452
v 0.15091765 1.37085420 0.03010919
v -1.28091523 -1.61129392 0.03010933
v -1.28091523 -1.61129392 0.03662467
v -1.28183425 -1.64638959 0.03010934
v -1.28183425 -1.64638959 0.03662467
v -1.27363855 -1.68052712 0.03010934
v -1.27363855 -1.68052712 0.03662467
v -1.25688665 -1.71138033 0.03010934
v -1.25688665 -1.71138033 0.03662467
v -1.23272010 -1.73684655 0.03010935
v -1.23272010 -1.73684655 0.03662468
v 2.24779307 0.29506898 0.03662474
v 2.24779307 0.29506898 0.03010941
v 2.25776401 0.32873083 0.03010941
v 2.25776401 0.32873083 0.03662474
v 2.25868303 0.36382650 0.03010941
v 2.25868303 0.36382650 0.03662474
v 2.25048733 0.39796403 0.03010940
v 2.25048733 0.39796403 0.03662474
v 2.23373543 0.42881724 0.03010940
v 2.23373543 0.42881724 0.03662473
v 2.20956888 0.45428346 0.03010940
v 2.20956888 0.45428346 0.03662473
v 0.79226921 -2.64344631 0.03662488
v 0.82593113 -2.65341729 0.03662488
v 0.86102680 -2.65433631 0.03662489
v 0.89516442 -2.64614057 0.03662489
v 0.92601753 -2.62938871 0.03662489
v 0.95148376 -2.60522216 0.03662489
v 0.96982753 -2.57528813 0.03662489
v 2.24779307 0.29506898 0.03662474
v 2.25776401 0.32873083 0.03662474
v 2.25868303 0.36382650 0.03662474
v 2.25048733 0.39796403 0.03662474
v 2.23373543 0.42881724 0.03662473
v 2.20956888 0.45428346 0.03662473
v 2.17963479 0.47262726 0.03662473
v 0.18457957 1.36088322 0.03662453
v 0.15091765 1.37085420 0.03662452
v 0.11582198 1.37177322 0.03662452
v 0.08168436 1.36357748 0.03662452
v 0.05083125 1.34682562 0.03662452
v 0.02536502 1.32265907 0.03662452
v 0.00702125 1.29272504 0.03662452
v -1.27094429 -1.57763207 0.03662466
v -1.28091523 -1.61129392 0.03662467
v -1.28183425 -1.64638959 0.03662467
v -1.27363855 -1.68052712 0.03662467
v -1.25688665 -1.71138033 0.03662467
v -1.23272010 -1.73684655 0.03662468
v -1.20278601 -1.75519035 0.03662468
vn 13.26500949 35.95666195 -0.00000199
vn 13.26500949 35.95666195 -0.00000199
vn 17.84498768 33.91752394 -0.00000153
vn 17.84498768 33.91752394 -0.00000153
vn -35.95665822 13.26502909 -0.00000339
vn -35.95665822 13.26502909 -0.00000339
vn -33.91753601 17.84497180 -0.00000362
vn -33.91753601 17.84497180 -0.00000362
vn -13.26500949 -35.95666195 0.00000199
vn -13.26500949 -35.95666195 0.00000199
vn -17.84498768 -33.91752394 0.00000153
vn -17.84498768 -33.91752394 0.00000153
vn -5.99532317 -37.85364219 0.00000261
vn -5.99532317 -37.85364219 0.00000261
vn 4.00609488 -38.11552802 0.00000328
vn 4.00609488 -38.11552802 0.00000328
vn 13.73462221 -35.77991183 0.00000373
vn 13.73462221 -35.77991183 0.00000373
vn 22.52716309 -31.00595132 0.00000392
vn 22.52716309 -31.00595132 0.00000392
vn 29.78443833 -24.11906558 0.00000385
vn 29.78443833 -24.11906558 0.00000385
vn 33.91753601 -17.84497180 0.00000362
vn 33.91753601 -17.84497180 0.00000362
vn -29.78443833 24.11906558 -0.00000385
vn -29.78443833 24.11906558 -0.00000385
vn -22.52716309 31.00595132 -0.00000392
vn -22.52716309 31.00595132 -0.00000392
vn -13.73462221 35.77991183 -0.00000373
vn -13.73462221 35.77991183 -0.00000373
vn -4.00609488 38.11552802 -0.00000328
vn -4.00609488 38.11552802 -0.00000328
vn 5.99532317 37.85364219 -0.00000261
vn 5.99532317 37.85364219 -0.00000261
vn -37.85363731 5.99535100 -0.00000294
vn -37.85363731 5.99535100 -0.00000294
vn -38.11552708 -4.00608154 -0.00000216
vn -38.11552708 -4.00608154 -0.00000216
vn -35.77991414 -13.73461618 -0.00000124
vn -35.77991414 -13.73461618 -0.00000124
vn -31.00596094 -22.52715380 -0.00000023
vn -31.00596094 -22.52715380 -0.00000023
vn -24.11908783 -29.78442092 0.00000079
vn -24.11908783 -29.78442092 0.00000079
vn 35.95665822 -13.26502909 0.00000339
vn 35.95665822 -13.26502909 0.00000339
vn 37.85363731 -5.99535100 0.00000294
vn 37.85363731 -5.99535100 0.00000294
vn 38.11552708 4.00608154 0.00000216
vn 38.11552708 4.00608154 0.00000216
vn 35.77991414 13.73461618 0.00000124
vn 35.77991414 13.73461618 0.00000124
vn 31.00596094 22.52715380 0.00000023
vn 31.00596094 22.52715380 0.00000023
vn 24.11908783 29.78442092 -0.00000079
vn 24.11908783 29.78442092 -0.00000079
vn -0.00000249 0.00000304 38.32547379
vn -0.00000249 0.00000304 38.32547379
vn -0.00000249 0.00000304 38.32547379
vn -0.00000249 0.00000304 38.32547379
vn -0.00000249 0.00000304 38.32547379
vn -0.00000249 0.00000304 38.32547379
vn -0.00000249 0.00000304 38.32547379
vn -0.00000249 0.00000304 38.32547379
vn -0.00000249 0.00000304 38.32547379
vn -0.00000249 0.00000304 38.32547379
vn -0.00000249 0.00000304 38.32547379
vn -0.00000249 0.00000304 38.32547379
vn -0.00000249 0.00000304 38.32547379
vn -0.00000249 0.00000304 38.32547379
vn -0.00000249 0.00000304 38.32547379
vn -0.00000249 0.00000304 38.32547379
vn -0.00000249 0.00000304 38.32547379
vn -0.00000249 0.00000304 38.32547379
vn -0.00000249 0.00000304 38.32547379
vn -0.00000249 0.00000304 38.32547379
vn -0.00000249 0.00000304 38.32547379
vn -0.00000249 0.00000304 38.32547379
vn -0.00000249 0.00000304 38.32547379
vn -0.00000249 0.00000304 38.32547379
vn -0.00000249 0.00000304 38.32547379
vn -0.00000249 0.00000304 38.32547379
vn -0.00000249 0.00000304 38.32547379
vn -0.00000249 0.00000304 38.32547379
vt 0.69632024 0.74954161
vt 0.69632024 0.74954161
vt 0.76470834 0.74954161
vt 0.76470834 0.74954161
vt 0.69210881 0.98906865
vt 0.69210881 0.98906865
vt 0.69210881 0.75937308
vt 0.69210881 0.75937308
vt 0.76470828 0.99890014
vt 0.76470828 0.99890014
vt 0.69632024 0.99890014
vt 0.69632024 0.99890014
vt 0.76579827 0.99856522
vt 0.76579827 0.99856522
vt 0.76681399 0.99758299
vt 0.76681399 0.99758299
vt 0.76768619 0.99602064
vt 0.76768619 0.99602064
vt 0.76835549 0.99398448
vt 0.76835549 0.99398448
vt 0.76877618 0.99161323
vt 0.76877618 0.99161323
vt 0.76891971 0.98906865
vt 0.76891971 0.98906865
vt 0.69225234 0.75682856
vt 0.69225234 0.75682856
vt 0.69267309 0.75445731
vt 0.69267309 0.75445731
vt 0.69334233 0.75242116
vt 0.69334233 0.75242116
vt 0.69421452 0.75085874
vt 0.69421452 0.75085874
vt 0.69523025 0.74987653
vt 0.69523025 0.74987653
vt 0.69225234 0.99161323
vt 0.69225234 0.99161323
vt 0.69267309 0.99398448
vt 0.69267309 0.99398448
vt 0.69334233 0.99602064
vt 0.69334233 0.99602064
vt 0.69421452 0.99758299
vt 0.69421452 0.99758299
vt 0.69523025 0.99856522
vt 0.69523025 0.99856522
vt 0.76891977 0.75937308
vt 0.76891977 0.75937308
vt 0.76877630 0.75682856
vt 0.76877630 0.75682856
vt 0.76835549 0.75445731
vt 0.76835549 0.75445731
vt 0.76768625 0.75242116
vt 0.76768625 0.75242116
vt 0.76681405 0.75085874
vt 0.76681405 0.75085874
vt 0.76579833 0.74987653
vt 0.76579833 0.74987653
vt 0.76470828 0.99890014
vt 0.76579827 0.99856522
vt 0.76681399 0.99758299
vt 0.76768619 0.99602064
vt 0.76835549 0.99398448
vt 0.76877618 0.99161323
vt 0.76891971 0.98906865
vt 0.76891977 0.75937308
vt 0.76877630 0.75682856
vt 0.76835549 0.75445731
vt 0.76768625 0.75242116
vt 0.76681405 0.75085874
vt 0.76579833 0.74987653
vt 0.76470834 0.74954161
vt 0.69632024 0.74954161
vt 0.69523025 0.74987653
vt 0.69421452 0.75085874
vt 0.69334233 0.75242116
vt 0.69267309 0.75445731
vt 0.69225234 0.75682856
vt 0.69210881 0.75937308
vt 0.69210881 0.98906865
vt 0.69225234 0.99161323
vt 0.69267309 0.99398448
vt 0.69334233 0.99602064
vt 0.69421452 0.99758299
vt 0.69523025 0.99856522
vt 0.69632024 0.99890014
f 1/1/1 2/2/2 3/3/3
f 1/1/1 3/3/3 4/4/4
f 5/5/5 6/6/6 7/7/7
f 5/5/5 7/7/7 8/8/8
f 9/9/9 10/10/10 11/11/11
f 9/9/9 11/11/11 12/12/12
f 10/10/10 9/9/9 13/13/13
f 10/10/10 13/13/13 14/14/14
f 14/14/14 13/13/13 15/15/15
f 14/14/14 15/15/15 16/16/16
f 16/16/16 15/15/15 17/17/17
f 16/16/16 17/17/17 18/18/18
f 18/18/18 17/17/17 19/19/19
f 18/18/18 19/19/19 20/20/20
f 20/20/20 19/19/19 21/21/21
f 20/20/20 21/21/21 22/22/22
f 22/22/22 21/21/21 23/23/23
f 22/22/22 23/23/23 24/24/24
f 8/8/8 7/7/7 25/25/25
f 8/8/8 25/25/25 26/26/26
f 26/26/26 25/25/25 27/27/27
f 26/26/26 27/27/27 28/28/28
f 28/28/28 27/27/27 29/29/29
f 28/28/28 29/29/29 30/30/30
f 30/30/30 29/29/29 31/31/31
f 30/30/30 31/31/31 32/32/32
f 32/32/32 31/31/31 33/33/33
f 32/32/32 33/33/33 34/34/34
f 34/34/34 33/33/33 2/2/2
f 34/34/34 2/2/2 1/1/1
f 6/6/6 5/5/5 35/35/35
f 6/6/6 35/35/35 36/36/36
f 36/36/36 35/35/35 37/37/37
f 36/36/36 37/37/37 38/38/38
f 38/38/38 37/37/37 39/39/39
f 38/38/38 39/39/39 40/40/40
f 40/40/40 39/39/39 41/41/41
f 40/40/40 41/41/41 42/42/42
f 42/42/42 41/41/41 43/43/43
f 42/42/42 43/43/43 44/44/44
f 44/44/44 43/43/43 12/12/12
f 44/44/44 12/12/12 11/11/11
f 45/45/45 46/46/46 47/47/47
f 45/45/45 47/47/47 48/48/48
f 48/48/48 47/47/47 49/49/49
f 48/48/48 49/49/49 50/50/50
f 50/50/50 49/49/49 51/51/51
f 50/50/50 51/51/51 52/52/52
f 52/52/52 51/51/51 53/53/53
f 52/52/52 53/53/53 54/54/54
f 54/54/54 53/53/53 55/55/55
f 54/54/54 55/55/55 56/56/56
f 56/56/56 55/55/55 4/4/4
f 56/56/56 4/4/4 3/3/3
f 46/46/46 45/45/45 24/24/24
f 46/46/46 24/24/24 23/23/23
f 72/72/72 70/70/70 71/71/71
f 70/70/70 72/72/72 69/69/69
f 69/69/69 72/72/72 73/73/73
f 69/69/69 73/73/73 68/68/68
f 68/68/68 73/73/73 74/74/74
f 68/68/68 74/74/74 67/67/67
f 67/67/67 74/74/74 75/75/75
f 67/67/67 75/75/75 66/66/66
f 66/66/66 75/75/75 76/76/76
f 66/66/66 76/76/76 65/65/65
f 65/65/65 76/76/76 77/77/77
f 65/65/65 77/77/77 64/64/64
f 64/64/64 77/77/77 78/78/78
f 64/64/64 78/78/78 63/63/63
f 63/63/63 78/78/78 79/79/79
f 63/63/63 79/79/79 62/62/62
f 62/62/62 79/79/79 80/80/80
f 62/62/62 80/80/80 61/61/61
f 61/61/61 80/80/80 81/81/81
f 61/61/61 81/81/81 60/60/60
f 60/60/60 81/81/81 82/82/82
f 60/60/60 82/82/82 59/59/59
f 59/59/59 82/82/82 83/83/83
f 59/59/59 83/83/83 58/58/58
f 58/58/58 83/83/83 84/84/84
f 58/58/58 84/84/84 57/57/57