# ZUP
v 3.14616321 -3.15263261 0.03044850
v 3.14616321 -3.15263261 0.02393317
v 3.85145682 -5.21946693 0.02393203
v 3.85145682 -5.21946693 0.03044737
v 6.20363700 -1.96719003 0.03044857
v 6.20363700 -1.96719002 0.02393324
v 3.23000873 -2.98192110 0.02393324
v 3.23000873 -2.98192110 0.03044857
v 7.07964207 -4.11786996 0.03044736
v 7.07964207 -4.11786996 0.02393203
v 6.37434846 -2.05103564 0.02393317
v 6.37434846 -2.05103564 0.03044850
v 7.08654630 -4.15229200 0.03044735
v 7.08654630 -4.15229200 0.02393202
v 7.08430632 -4.18732817 0.03044733
v 7.08430632 -4.18732816 0.02393200
v 7.07307464 -4.22059070 0.03044731
v 7.07307464 -4.22059069 0.02393198
v 7.05361677 -4.24981279 0.03044730
v 7.05361677 -4.24981279 0.02393197
v 7.02725855 -4.27300320 0.03044730
v 7.02725855 -4.27300319 0.02393197
v 6.99579655 -4.28858147 0.03044729
v 6.99579655 -4.28858146 0.02393196
v 3.19854673 -2.99749937 0.02393324
v 3.19854673 -2.99749937 0.03044857
v 3.17218851 -3.02068977 0.02393323
v 3.17218851 -3.02068978 0.03044856
v 3.15273064 -3.04991187 0.02393322
v 3.15273064 -3.04991187 0.03044855
v 3.14149896 -3.08317440 0.02393321
v 3.14149896 -3.08317441 0.03044854
v 3.13925899 -3.11821057 0.02393319
v 3.13925899 -3.11821057 0.03044852
v 6.23805897 -1.96028583 0.03044857
v 6.23805897 -1.96028582 0.02393324
v 6.27309514 -1.96252580 0.03044856
v 6.27309514 -1.96252580 0.02393323
v 6.30635758 -1.97375744 0.03044855
v 6.30635758 -1.97375743 0.02393322
v 6.33557976 -1.99321535 0.03044854
v 6.33557976 -1.99321535 0.02393321
v 6.35877017 -2.01957357 0.03044852
v 6.35877017 -2.01957357 0.02393319
v 4.02216828 -5.30331254 0.02393196
v 4.02216828 -5.30331254 0.03044730
v 3.98774631 -5.31021674 0.03044730
v 3.98774631 -5.31021674 0.02393197
v 3.95271015 -5.30797677 0.03044731
v 3.95271015 -5.30797677 0.02393197
v 3.91944771 -5.29674514 0.03044732
v 3.91944770 -5.29674513 0.02393199
v 3.89022552 -5.27728722 0.03044733
v 3.89022552 -5.27728722 0.02393200
v 3.86703512 -5.25092900 0.03044735
v 3.86703511 -5.25092900 0.02393202
v 7.07964207 -4.11786996 0.02393203
v 7.08654630 -4.15229200 0.02393202
v 7.08430632 -4.18732816 0.02393200
v 7.07307464 -4.22059069 0.02393198
v 7.05361677 -4.24981279 0.02393197
v 7.02725855 -4.27300319 0.02393197
v 6.99579655 -4.28858146 0.02393196
v 4.02216828 -5.30331254 0.02393196
v 3.98774631 -5.31021674 0.02393197
v 3.95271015 -5.30797677 0.02393197
v 3.91944770 -5.29674513 0.02393199
v 3.89022552 -5.27728722 0.02393200
v 3.86703511 -5.25092900 0.02393202
v 3.85145682 -5.21946693 0.02393203
v 3.14616321 -3.15263261 0.02393317
v 3.13925899 -3.11821057 0.02393319
v 3.14149896 -3.08317440 0.02393321
v 3.15273064 -3.04991187 0.02393322
v 3.17218851 -3.02068977 0.02393323
v 3.19854673 -2.99749937 0.02393324
v 3.23000873 -2.98192110 0.02393324
v 6.20363700 -1.96719002 0.02393324
v 6.23805897 -1.96028582 0.02393324
v 6.27309514 -1.96252580 0.02393323
v 6.30635758 -1.97375743 0.02393322
v 6.33557976 -1.99321535 0.02393321
v 6.35877017 -2.01957357 0.02393319
v 6.37434846 -2.05103564 0.02393317
vn -37.00363625 -9.97861123 0.00000132
vn -37.00363625 -9.97861123 0.00000132
vn -35.38451848 -14.72337019 -0.00000129
vn -35.38451848 -14.72337019 -0.00000129
vn -9.97863108 37.00363430 0.00001991
vn -9.97863108 37.00363430 0.00001991
vn -14.72335329 35.38452908 0.00001991
vn -14.72335329 35.38452908 0.00001991
vn 37.00363625 9.97861123 -0.00000132
vn 37.00363625 9.97861123 -0.00000132
vn 35.38451848 14.72337019 0.00000129
vn 35.38451848 14.72337019 0.00000129
vn 38.23935412 2.56781738 -0.00000518
vn 38.23935412 2.56781738 -0.00000518
vn 37.60100329 -7.41664251 -0.00000999
vn 37.60100329 -7.41664251 -0.00000999
vn 34.40020382 -16.89578876 -0.00001412
vn 34.40020382 -16.89578876 -0.00001412
vn 28.85508437 -25.22352003 -0.00001729
vn 28.85508437 -25.22352003 -0.00001729
vn 21.34362429 -31.83224082 -0.00001928
vn 21.34362429 -31.83224082 -0.00001928
vn 14.72335329 -35.38452908 -0.00001991
vn 14.72335329 -35.38452908 -0.00001991
vn -21.34362429 31.83224082 0.00001928
vn -21.34362429 31.83224082 0.00001928
vn -28.85508437 25.22352003 0.00001729
vn -28.85508437 25.22352003 0.00001729
vn -34.40020382 16.89578876 0.00001412
vn -34.40020382 16.89578876 0.00001412
vn -37.60100329 7.41664251 0.00000999
vn -37.60100329 7.41664251 0.00000999
vn -38.23935412 -2.56781738 0.00000518
vn -38.23935412 -2.56781738 0.00000518
vn -2.56784553 38.23935176 0.00001927
vn -2.56784553 38.23935176 0.00001927
vn 7.41662914 37.60100356 0.00001727
vn 7.41662914 37.60100356 0.00001727
vn 16.89578296 34.40020667 0.00001410
vn 16.89578296 34.40020667 0.00001410
vn 25.22351165 28.85509478 0.00000997
vn 25.22351165 28.85509478 0.00000997
vn 31.83222548 21.34364802 0.00000515
vn 31.83222548 21.34364802 0.00000515
vn 9.97863108 -37.00363430 -0.00001991
vn 9.97863108 -37.00363430 -0.00001991
vn 2.56784553 -38.23935176 -0.00001927
vn 2.56784553 -38.23935176 -0.00001927
vn -7.41662914 -37.60100356 -0.00001727
vn -7.41662914 -37.60100356 -0.00001727
vn -16.89578296 -34.40020667 -0.00001410
vn -16.89578296 -34.40020667 -0.00001410
vn -25.22351165 -28.85509478 -0.00000997
vn -25.22351165 -28.85509478 -0.00000997
vn -31.83222548 -21.34364802 -0.00000515
vn -31.83222548 -21.34364802 -0.00000515
vn -0.00000646 0.00001888 -38.32547379
vn -0.00000646 0.00001888 -38.32547379
vn -0.00000646 0.00001888 -38.32547379
vn -0.00000646 0.00001888 -38.32547379
vn -0.00000646 0.00001888 -38.32547379
vn -0.00000646 0.00001888 -38.32547379
vn -0.00000646 0.00001888 -38.32547379
vn -0.00000646 0.00001888 -38.32547379
vn -0.00000646 0.00001888 -38.32547379
vn -0.00000646 0.00001888 -38.32547379
vn -0.00000646 0.00001888 -38.32547379
vn -0.00000646 0.00001888 -38.32547379
vn -0.00000646 0.00001888 -38.32547379
vn -0.00000646 0.00001888 -38.32547379
vn -0.00000646 0.00001888 -38.32547379
vn -0.00000646 0.00001888 -38.32547379
vn -0.00000646 0.00001888 -38.32547379
vn -0.00000646 0.00001888 -38.32547379
vn -0.00000646 0.00001888 -38.32547379
vn -0.00000646 0.00001888 -38.32547379
vn -0.00000646 0.00001888 -38.32547379
vn -0.00000646 0.00001888 -38.32547379
vn -0.00000646 0.00001888 -38.32547379
vn -0.00000646 0.00001888 -38.32547379
vn -0.00000646 0.00001888 -38.32547379
vn -0.00000646 0.00001888 -38.32547379
vn -0.00000646 0.00001888 -38.32547379
vn -0.00000646 0.00001888 -38.32547379
vt 0.00421866 0.00070745
vt 0.00421866 0.00070745
vt 0.07260671 0.00070745
vt 0.07260671 0.00070745
vt 0.00000723 0.24023449
vt 0.00000723 0.24023449
vt 0.00000723 0.01053894
vt 0.00000723 0.01053894
vt 0.07260668 0.25006598
vt 0.07260668 0.25006598
vt 0.00421866 0.25006598
vt 0.00421866 0.25006598
vt 0.07369669 0.24973106
vt 0.07369669 0.24973106
vt 0.07471242 0.24874884
vt 0.07471242 0.24874884
vt 0.07558462 0.24718648
vt 0.07558462 0.24718648
vt 0.07625391 0.24515033
vt 0.07625391 0.24515033
vt 0.07667462 0.24277908
vt 0.07667462 0.24277908
vt 0.07681814 0.24023449
vt 0.07681814 0.24023449
vt 0.00015074 0.00799441
vt 0.00015074 0.00799441
vt 0.00057147 0.00562316
vt 0.00057147 0.00562316
vt 0.00124074 0.00358701
vt 0.00124074 0.00358701
vt 0.00211295 0.00202459
vt 0.00211295 0.00202459
vt 0.00312866 0.00104237
vt 0.00312866 0.00104237
vt 0.00015074 0.24277908
vt 0.00015074 0.24277908
vt 0.00057146 0.24515033
vt 0.00057146 0.24515033
vt 0.00124074 0.24718648
vt 0.00124074 0.24718648
vt 0.00211295 0.24874884
vt 0.00211295 0.24874884
vt 0.00312866 0.24973106
vt 0.00312866 0.24973106
vt 0.07681816 0.01053894
vt 0.07681816 0.01053894
vt 0.07667468 0.00799441
vt 0.07667468 0.00799441
vt 0.07625391 0.00562316
vt 0.07625391 0.00562316
vt 0.07558464 0.00358701
vt 0.07558464 0.00358701
vt 0.07471247 0.00202459
vt 0.07471247 0.00202459
vt 0.07369672 0.00104237
vt 0.07369672 0.00104237
vt 0.07260668 0.25006598
vt 0.07369669 0.24973106
vt 0.07471242 0.24874884
vt 0.07558462 0.24718648
vt 0.07625391 0.24515033
vt 0.07667462 0.24277908
vt 0.07681814 0.24023449
vt 0.07681816 0.01053894
vt 0.07667468 0.00799441
vt 0.07625391 0.00562316
vt 0.07558464 0.00358701
vt 0.07471247 0.00202459
vt 0.07369672 0.00104237
vt 0.07260671 0.00070745
vt 0.00421866 0.00070745
vt 0.00312866 0.00104237
vt 0.00211295 0.00202459
vt 0.00124074 0.00358701
vt 0.00057147 0.00562316
vt 0.00015074 0.00799441
vt 0.00000723 0.01053894
vt 0.00000723 0.24023449
vt 0.00015074 0.24277908
vt 0.00057146 0.24515033
vt 0.00124074 0.24718648
vt 0.00211295 0.24874884
vt 0.00312866 0.24973106
vt 0.00421866 0.25006598
f 1/1/1 2/2/2 3/3/3
f 1/1/1 3/3/3 4/4/4
f 5/5/5 6/6/6 7/7/7
f 5/5/5 7/7/7 8/8/8
f 9/9/9 10/10/10 11/11/11
f 9/9/9 11/11/11 12/12/12
f 10/10/10 9/9/9 13/13/13
f 10/10/10 13/13/13 14/14/14
f 14/14/14 13/13/13 15/15/15
f 14/14/14 15/15/15 16/16/16
f 16/16/16 15/15/15 17/17/17
f 16/16/16 17/17/17 18/18/18
f 18/18/18 17/17/17 19/19/19
f 18/18/18 19/19/19 20/20/20
f 20/20/20 19/19/19 21/21/21
f 20/20/20 21/21/21 22/22/22
f 22/22/22 21/21/21 23/23/23
f 22/22/22 23/23/23 24/24/24
f 8/8/8 7/7/7 25/25/25
f 8/8/8 25/25/25 26/26/26
f 26/26/26 25/25/25 27/27/27
f 26/26/26 27/27/27 28/28/28
f 28/28/28 27/27/27 29/29/29
f 28/28/28 29/29/29 30/30/30
f 30/30/30 29/29/29 31/31/31
f 30/30/30 31/31/31 32/32/32
f 32/32/32 31/31/31 33/33/33
f 32/32/32 33/33/33 34/34/34
f 34/34/34 33/33/33 2/2/2
f 34/34/34 2/2/2 1/1/1
f 6/6/6 5/5/5 35/35/35
f 6/6/6 35/35/35 36/36/36
f 36/36/36 35/35/35 37/37/37
f 36/36/36 37/37/37 38/38/38
f 38/38/38 37/37/37 39/39/39
f 38/38/38 39/39/39 40/40/40
f 40/40/40 39/39/39 41/41/41
f 40/40/40 41/41/41 42/42/42
f 42/42/42 41/41/41 43/43/43
f 42/42/42 43/43/43 44/44/44
f 44/44/44 43/43/43 12/12/12
f 44/44/44 12/12/12 11/11/11
f 45/45/45 46/46/46 47/47/47
f 45/45/45 47/47/47 48/48/48
f 48/48/48 47/47/47 49/49/49
f 48/48/48 49/49/49 50/50/50
f 50/50/50 49/49/49 51/51/51
f 50/50/50 51/51/51 52/52/52
f 52/52/52 51/51/51 53/53/53
f 52/52/52 53/53/53 54/54/54
f 54/54/54 53/53/53 55/55/55
f 54/54/54 55/55/55 56/56/56
f 56/56/56 55/55/55 4/4/4
f 56/56/56 4/4/4 3/3/3
f 46/46/46 45/45/45 24/24/24
f 46/46/46 24/24/24 23/23/23
f 72/72/72 70/70/70 71/71/71
f 70/70/70 72/72/72 69/69/69
f 69/69/69 72/72/72 73/73/73
f 69/69/69 73/73/73 68/68/68
f 68/68/68 73/73/73 74/74/74
f 68/68/68 74/74/74 67/67/67
f 67/67/67 74/74/74 75/75/75
f 67/67/67 75/75/75 66/66/66
f 66/66/66 75/75/75 76/76/76
f 66/66/66 76/76/76 65/65/65
f 65/65/65 76/76/76 77/77/77
f 65/65/65 77/77/77 64/64/64
f 64/64/64 77/77/77 78/78/78
f 64/64/64 78/78/78 63/63/63
f 63/63/63 78/78/78 79/79/79
f 63/63/63 79/79/79 62/62/62
f 62/62/62 79/79/79 80/80/80
f 62/62/62 80/80/80 61/61/61
f 61/61/61 80/80/80 81/81/81
f 61/61/61 81/81/81 60/60/60
f 60/60/60 81/81/81 82/82/82
f 60/60/60 82/82/82 59/59/59
f 59/59/59 82/82/82 83/83/83
f 59/59/59 83/83/83 58/58/58
f 58/58/58 83/83/83 84/84/84
f 58/58/58 84/84/84 57/57/57