# ZUP
v -3.00206511 1.11781215 0.02126332
v -3.00206510 1.11781215 0.02777865
v -0.82493739 1.28915526 0.02777491
v -0.82493740 1.28915526 0.02125958
v -2.87906670 -2.15912122 0.02126355
v -2.87906669 -2.15912121 0.02777888
v -3.12558414 0.97319009 0.02777888
v -3.12558415 0.97319009 0.02126355
v -0.55731686 -2.11129706 0.02125958
v -0.55731685 -2.11129706 0.02777491
v -2.73444456 -2.28264018 0.02777865
v -2.73444457 -2.28264018 0.02126332
v -0.52297645 -2.10399765 0.02125952
v -0.52297644 -2.10399765 0.02777485
v -0.49169526 -2.08805910 0.02125946
v -0.49169524 -2.08805910 0.02777480
v -0.46560520 -2.06456749 0.02125942
v -0.46560519 -2.06456749 0.02777475
v -0.44648425 -2.03512384 0.02125938
v -0.44648423 -2.03512383 0.02777471
v -0.43563537 -2.00173443 0.02125936
v -0.43563536 -2.00173443 0.02777469
v -0.43379782 -1.96667500 0.02125935
v -0.43379781 -1.96667500 0.02777468
v -3.12374660 1.00824952 0.02777887
v -3.12374661 1.00824952 0.02126354
v -3.11289772 1.04163892 0.02777885
v -3.11289773 1.04163892 0.02126352
v -3.09377676 1.07108258 0.02777881
v -3.09377678 1.07108258 0.02126348
v -3.06768671 1.09457419 0.02777877
v -3.06768672 1.09457418 0.02126344
v -3.03640551 1.11051273 0.02777871
v -3.03640552 1.11051273 0.02126338
v -2.87176729 -2.19346155 0.02126354
v -2.87176728 -2.19346155 0.02777887
v -2.85582874 -2.22474275 0.02126352
v -2.85582873 -2.22474275 0.02777885
v -2.83233721 -2.25083274 0.02126348
v -2.83233720 -2.25083274 0.02777881
v -2.80289348 -2.26995376 0.02126344
v -2.80289347 -2.26995376 0.02777877
v -2.76950407 -2.28080264 0.02126338
v -2.76950406 -2.28080264 0.02777871
v -0.68031526 1.16563630 0.02777468
v -0.68031528 1.16563630 0.02125935
v -0.68761468 1.19997664 0.02125936
v -0.68761467 1.19997664 0.02777469
v -0.70355323 1.23125783 0.02125938
v -0.70355322 1.23125783 0.02777471
v -0.72704476 1.25734783 0.02125942
v -0.72704475 1.25734783 0.02777475
v -0.75648850 1.27646884 0.02125946
v -0.75648848 1.27646884 0.02777480
v -0.78987790 1.28731772 0.02125952
v -0.78987789 1.28731772 0.02777485
v -0.55731685 -2.11129706 0.02777491
v -0.52297644 -2.10399765 0.02777485
v -0.49169524 -2.08805910 0.02777480
v -0.46560519 -2.06456749 0.02777475
v -0.44648423 -2.03512383 0.02777471
v -0.43563536 -2.00173443 0.02777469
v -0.43379781 -1.96667500 0.02777468
v -0.68031526 1.16563630 0.02777468
v -0.68761467 1.19997664 0.02777469
v -0.70355322 1.23125783 0.02777471
v -0.72704475 1.25734783 0.02777475
v -0.75648848 1.27646884 0.02777480
v -0.78987789 1.28731772 0.02777485
v -0.82493739 1.28915526 0.02777491
v -3.00206510 1.11781215 0.02777865
v -3.03640551 1.11051273 0.02777871
v -3.06768671 1.09457419 0.02777877
v -3.09377676 1.07108258 0.02777881
v -3.11289772 1.04163892 0.02777885
v -3.12374660 1.00824952 0.02777887
v -3.12558414 0.97319009 0.02777888
v -2.87906669 -2.15912121 0.02777888
v -2.87176728 -2.19346155 0.02777887
v -2.85582873 -2.22474275 0.02777885
v -2.83233720 -2.25083274 0.02777881
v -2.80289347 -2.26995376 0.02777877
v -2.76950406 -2.28080264 0.02777871
v -2.73444456 -2.28264018 0.02777865
vn -5.49951148 37.92884465 0.00000429
vn -5.49951148 37.92884465 0.00000429
vn -0.50155586 38.32219103 -0.00000429
vn -0.50155586 38.32219103 -0.00000429
vn -37.92885073 -5.49949248 0.00006550
vn -37.92885073 -5.49949248 0.00006550
vn -38.32219406 -0.50157558 0.00006550
vn -38.32219406 -0.50157558 0.00006550
vn 5.49951148 -37.92884465 -0.00000429
vn 5.49951148 -37.92884465 -0.00000429
vn 0.50155586 -38.32219103 0.00000429
vn 0.50155586 -38.32219103 0.00000429
vn 12.79339698 -36.12715031 -0.00001699
vn 12.79339698 -36.12715031 -0.00001699
vn 21.70777588 -31.58503770 -0.00003282
vn 21.70777588 -31.58503770 -0.00003282
vn 29.14291340 -24.89040789 -0.00004641
vn 29.14291340 -24.89040789 -0.00004641
vn 34.59201304 -16.49953320 -0.00005684
vn 34.59201304 -16.49953320 -0.00005684
vn 37.68369451 -6.98434871 -0.00006340
vn 37.68369451 -6.98434871 -0.00006340
vn 38.32219406 0.50157558 -0.00006550
vn 38.32219406 0.50157558 -0.00006550
vn -37.68369451 6.98434871 0.00006340
vn -37.68369451 6.98434871 0.00006340
vn -34.59201304 16.49953320 0.00005684
vn -34.59201304 16.49953320 0.00005684
vn -29.14291340 24.89040789 0.00004641
vn -29.14291340 24.89040789 0.00004641
vn -21.70777588 31.58503770 0.00003282
vn -21.70777588 31.58503770 0.00003282
vn -12.79339698 36.12715031 0.00001699
vn -12.79339698 36.12715031 0.00001699
vn -36.12715929 -12.79337019 0.00006340
vn -36.12715929 -12.79337019 0.00006340
vn -31.58504324 -21.70776372 0.00005684
vn -31.58504324 -21.70776372 0.00005684
vn -24.89041280 -29.14290920 0.00004641
vn -24.89041280 -29.14290920 0.00004641
vn -16.49954608 -34.59200947 0.00003282
vn -16.49954608 -34.59200947 0.00003282
vn -6.98437658 -37.68368983 0.00001699
vn -6.98437658 -37.68368983 0.00001699
vn 37.92885073 5.49949248 -0.00006550
vn 37.92885073 5.49949248 -0.00006550
vn 36.12715929 12.79337019 -0.00006340
vn 36.12715929 12.79337019 -0.00006340
vn 31.58504324 21.70776372 -0.00005684
vn 31.58504324 21.70776372 -0.00005684
vn 24.89041280 29.14290920 -0.00004641
vn 24.89041280 29.14290920 -0.00004641
vn 16.49954608 34.59200947 -0.00003282
vn 16.49954608 34.59200947 -0.00003282
vn 6.98437658 37.68368983 -0.00001699
vn 6.98437658 37.68368983 -0.00001699
vn 0.00006544 0.00000515 38.32547379
vn 0.00006544 0.00000515 38.32547379
vn 0.00006544 0.00000515 38.32547379
vn 0.00006544 0.00000515 38.32547379
vn 0.00006544 0.00000515 38.32547379
vn 0.00006544 0.00000515 38.32547379
vn 0.00006544 0.00000515 38.32547379
vn 0.00006544 0.00000515 38.32547379
vn 0.00006544 0.00000515 38.32547379
vn 0.00006544 0.00000515 38.32547379
vn 0.00006544 0.00000515 38.32547379
vn 0.00006544 0.00000515 38.32547379
vn 0.00006544 0.00000515 38.32547379
vn 0.00006544 0.00000515 38.32547379
vn 0.00006544 0.00000515 38.32547379
vn 0.00006544 0.00000515 38.32547379
vn 0.00006544 0.00000515 38.32547379
vn 0.00006544 0.00000515 38.32547379
vn 0.00006544 0.00000515 38.32547379
vn 0.00006544 0.00000515 38.32547379
vn 0.00006544 0.00000515 38.32547379
vn 0.00006544 0.00000515 38.32547379
vn 0.00006544 0.00000515 38.32547379
vn 0.00006544 0.00000515 38.32547379
vn 0.00006544 0.00000515 38.32547379
vn 0.00006544 0.00000515 38.32547379
vn 0.00006544 0.00000515 38.32547379
vn 0.00006544 0.00000515 38.32547379
f 1//1 2//2 3//3
f 1//1 3//3 4//4
f 5//5 6//6 7//7
f 5//5 7//7 8//8
f 9//9 10//10 11//11
f 9//9 11//11 12//12
f 10//10 9//9 13//13
f 10//10 13//13 14//14
f 14//14 13//13 15//15
f 14//14 15//15 16//16
f 16//16 15//15 17//17
f 16//16 17//17 18//18
f 18//18 17//17 19//19
f 18//18 19//19 20//20
f 20//20 19//19 21//21
f 20//20 21//21 22//22
f 22//22 21//21 23//23
f 22//22 23//23 24//24
f 8//8 7//7 25//25
f 8//8 25//25 26//26
f 26//26 25//25 27//27
f 26//26 27//27 28//28
f 28//28 27//27 29//29
f 28//28 29//29 30//30
f 30//30 29//29 31//31
f 30//30 31//31 32//32
f 32//32 31//31 33//33
f 32//32 33//33 34//34
f 34//34 33//33 2//2
f 34//34 2//2 1//1
f 6//6 5//5 35//35
f 6//6 35//35 36//36
f 36//36 35//35 37//37
f 36//36 37//37 38//38
f 38//38 37//37 39//39
f 38//38 39//39 40//40
f 40//40 39//39 41//41
f 40//40 41//41 42//42
f 42//42 41//41 43//43
f 42//42 43//43 44//44
f 44//44 43//43 12//12
f 44//44 12//12 11//11
f 45//45 46//46 47//47
f 45//45 47//47 48//48
f 48//48 47//47 49//49
f 48//48 49//49 50//50
f 50//50 49//49 51//51
f 50//50 51//51 52//52
f 52//52 51//51 53//53
f 52//52 53//53 54//54
f 54//54 53//53 55//55
f 54//54 55//55 56//56
f 56//56 55//55 4//4
f 56//56 4//4 3//3
f 46//46 45//45 24//24
f 46//46 24//24 23//23
f 72//72 70//70 71//71
f 70//70 72//72 69//69
f 69//69 72//72 73//73
f 69//69 73//73 68//68
f 68//68 73//73 74//74
f 68//68 74//74 67//67
f 67//67 74//74 75//75
f 67//67 75//75 66//66
f 66//66 75//75 76//76
f 66//66 76//76 65//65
f 65//65 76//76 77//77
f 65//65 77//77 64//64
f 64//64 77//77 78//78
f 64//64 78//78 63//63
f 63//63 78//78 79//79
f 63//63 79//79 62//62
f 62//62 79//79 80//80
f 62//62 80//80 61//61
f 61//61 80//80 81//81
f 61//61 81//81 60//60
f 60//60 81//81 82//82
f 60//60 82//82 59//59
f 59//59 82//82 83//83
f 59//59 83//83 58//58
f 58//58 83//83 84//84
f 58//58 84//84 57//57