# ZUP
v 0.66950210 1.07489773 0.02561965
v 0.70298479 1.06434053 0.02561968
v 0.73259432 1.04547718 0.02561971
v 0.75631268 1.01959310 0.02561974
v 0.77252355 0.98845234 0.02561976
v 0.78012224 0.95417683 0.02561978
v 0.77859101 0.91910269 0.02561978
v 0.23298900 -2.17515986 0.02561995
v 0.22243182 -2.20864247 0.02561995
v 0.20356847 -2.23825201 0.02561994
v 0.17768448 -2.26197031 0.02561992
v 0.14654363 -2.27818123 0.02561989
v 0.11226812 -2.28577992 0.02561986
v 0.07719391 -2.28424869 0.02561983
v -2.07348783 -1.90502544 0.02561773
v -2.10697052 -1.89446825 0.02561770
v -2.13658005 -1.87560490 0.02561767
v -2.16029842 -1.84972082 0.02561764
v -2.17650928 -1.81858005 0.02561762
v -2.18410797 -1.78430455 0.02561760
v -2.18257675 -1.74923041 0.02561760
v -1.63697474 1.34503214 0.02561743
v -1.62641755 1.37851476 0.02561743
v -1.60755421 1.40812429 0.02561744
v -1.58167021 1.43184259 0.02561746
v -1.55052936 1.44805351 0.02561748
v -1.51625386 1.45565221 0.02561752
v -1.48117965 1.45412097 0.02561755
vn 0.00003588 -0.00000844 -38.32547379
vn 0.00003588 -0.00000844 -38.32547379
vn 0.00003588 -0.00000844 -38.32547379
vn 0.00003588 -0.00000844 -38.32547379
vn 0.00003588 -0.00000844 -38.32547379
vn 0.00003588 -0.00000844 -38.32547379
vn 0.00003588 -0.00000844 -38.32547379
vn 0.00003588 -0.00000844 -38.32547379
vn 0.00003588 -0.00000844 -38.32547379
vn 0.00003588 -0.00000844 -38.32547379
vn 0.00003588 -0.00000844 -38.32547379
vn 0.00003588 -0.00000844 -38.32547379
vn 0.00003588 -0.00000844 -38.32547379
vn 0.00003588 -0.00000844 -38.32547379
vn 0.00003588 -0.00000844 -38.32547379
vn 0.00003588 -0.00000844 -38.32547379
vn 0.00003588 -0.00000844 -38.32547379
vn 0.00003588 -0.00000844 -38.32547379
vn 0.00003588 -0.00000844 -38.32547379
vn 0.00003588 -0.00000844 -38.32547379
vn 0.00003588 -0.00000844 -38.32547379
vn 0.00003588 -0.00000844 -38.32547379
vn 0.00003588 -0.00000844 -38.32547379
vn 0.00003588 -0.00000844 -38.32547379
vn 0.00003588 -0.00000844 -38.32547379
vn 0.00003588 -0.00000844 -38.32547379
vn 0.00003588 -0.00000844 -38.32547379
vn 0.00003588 -0.00000844 -38.32547379
vt 0.94244182 0.00078833
vt 0.95654553 0.00212967
vt 0.96968830 0.00606221
vt 0.98097408 0.01231825
vt 0.98963374 0.02047104
vt 0.99507737 0.02996492
vt 0.99693453 0.04015344
vt 0.99693453 0.95984675
vt 0.99507737 0.97003512
vt 0.98963374 0.97952917
vt 0.98097408 0.98768204
vt 0.96968830 0.99393785
vt 0.95654553 0.99787032
vt 0.94244182 0.99921176
vt 0.94244182 0.00078833
vt 0.04345420 0.99787032
vt 0.03031173 0.99393785
vt 0.01902589 0.98768204
vt 0.01036626 0.97952917
vt 0.00492239 0.97003512
vt 0.00306547 0.95984675
vt 0.00306547 0.04015344
vt 0.00492239 0.02996492
vt 0.01036626 0.02047104
vt 0.01902589 0.01231825
vt 0.03031173 0.00606221
vt 0.04345420 0.00212967
vt 0.05755770 0.00078833
f 2/2/2 28/28/28 1/1/1
f 28/28/28 2/2/2 27/27/27
f 27/27/27 2/2/2 3/3/3
f 27/27/27 3/3/3 26/26/26
f 26/26/26 3/3/3 4/4/4
f 26/26/26 4/4/4 25/25/25
f 25/25/25 4/4/4 5/5/5
f 25/25/25 5/5/5 24/24/24
f 24/24/24 5/5/5 6/6/6
f 24/24/24 6/6/6 23/23/23
f 23/23/23 6/6/6 7/7/7
f 23/23/23 7/7/7 22/22/22
f 22/22/22 7/7/7 8/8/8
f 22/22/22 8/8/8 21/21/21
f 21/21/21 8/8/8 9/9/9
f 21/21/21 9/9/9 20/20/20
f 20/20/20 9/9/9 10/10/10
f 20/20/20 10/10/10 19/19/19
f 19/19/19 10/10/10 11/11/11
f 19/19/19 11/11/11 18/18/18
f 18/18/18 11/11/11 12/12/12
f 18/18/18 12/12/12 17/17/17
f 17/17/17 12/12/12 13/13/13
f 17/17/17 13/13/13 16/16/16
f 16/16/16 13/13/13 14/14/14
f 16/16/16 14/14/14 15/15/15